<?xml version="1.0" encoding="utf-8"?>
<!-- Generator: Adobe Illustrator 22.1.0, SVG Export Plug-In . SVG Version: 6.00 Build 0)  -->
<svg version="1.1" id="Layer_1" xmlns="http://www.w3.org/2000/svg" xmlns:xlink="http://www.w3.org/1999/xlink" x="0px" y="0px"
	 viewBox="0 0 141.3 68.4" style="enable-background:new 0 0 141.3 68.4;" xml:space="preserve">
<style type="text/css">
	.st0{fill:#1F667F;}
	.st1{opacity:0.8;}
	.st2{fill:#9DBB59;}
	.st3{opacity:0.8;fill:#505150;}
	.st4{fill:#FFFFFF;}
</style>
<g>
	<g id="XMLID_1_">
		<g>
			<polygon class="st0" points="137.5,36.7 137.5,64.2 137.5,64.2 76.1,64.2 76.1,64.2 76.2,52.3 100.3,41 112.1,26.9 121.4,24 			
				"/>
			<polygon class="st0" points="137.5,36.7 121.4,24 124.4,23.1 137.5,14.1 			"/>
		</g>
	</g>
	<g id="XMLID_2_" class="st1">
		<g>
			<polygon class="st2" points="137.5,36.7 137.5,64.2 76.2,64.2 76.2,41.6 88.1,27.3 100.6,2.3 113.4,17.7 121.2,23.8 			"/>
		</g>
	</g>
</g>
<g>
	<path class="st0" d="M4.3,54.9c0-2.8,0-3.3,0-3.9c0-0.6-0.2-0.9-0.8-1c-0.1,0-0.4-0.1-0.7-0.1c-0.2,0-0.3,0-0.3-0.2
		c0-0.1,0.1-0.2,0.4-0.2c0.9,0,2,0.1,2.6,0.1c0.4,0,1.5-0.1,2.2-0.1c0.3,0,0.4,0,0.4,0.2c0,0.1-0.1,0.2-0.3,0.2
		c-0.2,0-0.3,0-0.5,0.1c-0.5,0.1-0.6,0.4-0.6,1c0,0.6,0,1.1,0,3.9v2.6c0,2.7,0.5,3.8,1.4,4.5c0.8,0.7,1.6,0.8,2.2,0.8
		c0.8,0,1.7-0.3,2.4-1c1-1,1-2.7,1-4.5v-2.3c0-2.8,0-3.3,0-3.9c0-0.6-0.2-0.9-0.8-1c-0.1,0-0.4-0.1-0.6-0.1c-0.2,0-0.3,0-0.3-0.2
		c0-0.1,0.1-0.2,0.4-0.2c0.9,0,2,0.1,2,0.1c0.2,0,1.3-0.1,2-0.1c0.2,0,0.4,0,0.4,0.2c0,0.1-0.1,0.2-0.3,0.2c-0.2,0-0.3,0-0.5,0.1
		c-0.5,0.1-0.6,0.4-0.6,1c0,0.6,0,1.1,0,3.9v2c0,2-0.2,4.2-1.7,5.5c-1.2,1.1-2.5,1.3-3.6,1.3c-0.9,0-2.6-0.1-3.9-1.3
		c-0.9-0.8-1.6-2.2-1.6-4.8V54.9z"/>
	<path class="st0" d="M29,55.4c0.1,0,0.1,0,0.1-0.1v-0.4c0-2.8,0-3.3,0-3.9c0-0.6-0.2-0.9-0.8-1c-0.1,0-0.4-0.1-0.7-0.1
		c-0.2,0-0.3,0-0.3-0.2c0-0.1,0.1-0.2,0.4-0.2c0.9,0,2.1,0.1,2.5,0.1c0.4,0,1.5-0.1,2.2-0.1c0.2,0,0.4,0,0.4,0.2
		c0,0.1-0.1,0.2-0.3,0.2c-0.1,0-0.3,0-0.5,0.1c-0.5,0.1-0.6,0.4-0.6,1c0,0.6,0,1.1,0,3.9v3.2c0,1.7,0,3.1,0.1,3.9
		c0.1,0.5,0.2,0.9,0.7,1c0.2,0,0.6,0.1,0.9,0.1c0.2,0,0.3,0.1,0.3,0.1c0,0.1-0.1,0.2-0.4,0.2c-1.1,0-2.2-0.1-2.7-0.1
		c-0.4,0-1.5,0.1-2.2,0.1c-0.2,0-0.4-0.1-0.4-0.2c0-0.1,0.1-0.1,0.3-0.1c0.3,0,0.5,0,0.6-0.1c0.4-0.1,0.4-0.5,0.5-1
		c0.1-0.8,0.1-2.2,0.1-3.9v-1.6c0-0.1-0.1-0.1-0.1-0.1h-6.7c-0.1,0-0.1,0-0.1,0.1v1.6c0,1.7,0,3.1,0.1,3.9c0.1,0.5,0.2,0.9,0.7,1
		c0.2,0,0.6,0.1,0.9,0.1c0.2,0,0.3,0.1,0.3,0.1c0,0.1-0.1,0.2-0.4,0.2c-1.1,0-2.2-0.1-2.7-0.1c-0.4,0-1.5,0.1-2.2,0.1
		c-0.2,0-0.4-0.1-0.4-0.2c0-0.1,0.1-0.1,0.3-0.1c0.3,0,0.5,0,0.6-0.1c0.4-0.1,0.4-0.5,0.5-1c0.1-0.8,0.1-2.2,0.1-3.9v-3.2
		c0-2.8,0-3.3,0-3.9c0-0.6-0.2-0.9-0.8-1c-0.1,0-0.4-0.1-0.7-0.1c-0.2,0-0.3,0-0.3-0.2c0-0.1,0.1-0.2,0.4-0.2c0.9,0,2.1,0.1,2.5,0.1
		c0.4,0,1.5-0.1,2.2-0.1c0.2,0,0.4,0,0.4,0.2c0,0.1-0.1,0.2-0.3,0.2c-0.1,0-0.3,0-0.5,0.1c-0.5,0.1-0.6,0.4-0.6,1c0,0.6,0,1.1,0,3.9
		v0.4c0,0.1,0.1,0.1,0.1,0.1H29z"/>
	<path class="st3" d="M37.3,54.9c0-2.9,0-3.4,0-4c0-0.6-0.2-0.9-0.8-1c-0.1,0-0.4-0.1-0.6-0.1c-0.1,0-0.1,0-0.1-0.1
		c0-0.1,0.1-0.1,0.3-0.1c0.4,0,0.9,0,1.3,0l0.7,0c0.1,0,3.6,0,4,0c0.3,0,0.6-0.1,0.8-0.1c0.1,0,0.2-0.1,0.2-0.1
		c0.1,0,0.1,0.1,0.1,0.2c0,0.1-0.1,0.3-0.1,0.9c0,0.2-0.1,1-0.1,1.2c0,0.1-0.1,0.2-0.1,0.2c-0.1,0-0.1-0.1-0.1-0.2
		c0-0.1,0-0.4-0.1-0.7c-0.1-0.3-0.3-0.5-1.2-0.6c-0.3,0-2.2-0.1-2.4-0.1c-0.1,0-0.1,0.1-0.1,0.2v5c0,0.1,0,0.2,0.1,0.2
		c0.2,0,2.4,0,2.8,0c0.4,0,0.7-0.1,0.8-0.3c0.1-0.1,0.2-0.2,0.3-0.2c0.1,0,0.1,0,0.1,0.1c0,0.1-0.1,0.4-0.1,1c0,0.4-0.1,1-0.1,1.2
		c0,0.1,0,0.3-0.1,0.3c-0.1,0-0.1-0.1-0.1-0.2c0-0.2,0-0.4-0.1-0.6c-0.1-0.3-0.2-0.6-0.9-0.6c-0.5-0.1-2.2-0.1-2.5-0.1
		c-0.1,0-0.1,0.1-0.1,0.1v1.6c0,0.6,0,2.7,0,3.1c0.1,1.3,0.3,1.5,2,1.5c0.5,0,1.2,0,1.7-0.2c0.5-0.2,0.7-0.6,0.8-1.3
		c0-0.2,0.1-0.3,0.2-0.3c0.1,0,0.1,0.1,0.1,0.3c0,0.1-0.1,1.4-0.2,1.8c-0.1,0.5-0.3,0.5-0.9,0.5c-1.3,0-2.3,0-3-0.1
		c-0.7,0-1.1-0.1-1.4-0.1c0,0-0.3,0-0.7,0c-0.4,0-0.8,0-1,0c-0.2,0-0.3,0-0.3-0.1c0-0.1,0-0.1,0.1-0.1c0.2,0,0.4,0,0.5-0.1
		c0.4-0.1,0.4-0.5,0.5-1c0.1-0.8,0.1-2.2,0.1-4V54.9z"/>
	<path class="st3" d="M48,54.9c0-2.9,0-3.4,0-4c0-0.6-0.2-0.9-0.8-1c-0.1,0-0.4-0.1-0.6-0.1c-0.1,0-0.1,0-0.1-0.1
		c0-0.1,0.1-0.1,0.3-0.1c0.8,0,1.9,0.1,2,0.1c0.2,0,1.5-0.1,2.1-0.1c1.1,0,2.3,0.1,3.2,0.8c0.4,0.3,1.2,1.2,1.2,2.5
		c0,1.4-0.5,2.7-2.1,4.2c1.4,1.9,2.6,3.5,3.6,4.7c0.9,1,1.7,1.2,2.1,1.3c0.3,0.1,0.6,0.1,0.7,0.1c0.1,0,0.2,0.1,0.2,0.1
		c0,0.1-0.1,0.1-0.4,0.1h-1.2c-1,0-1.4-0.1-1.9-0.3c-0.8-0.4-1.4-1.3-2.4-2.7c-0.7-1-1.6-2.2-1.9-2.7c-0.1-0.1-0.1-0.1-0.2-0.1
		l-2.2,0c-0.1,0-0.1,0.1-0.1,0.1v0.4c0,1.8,0,3.2,0.1,4c0.1,0.5,0.2,0.9,0.7,1c0.2,0,0.6,0.1,0.8,0.1c0.1,0,0.1,0.1,0.1,0.1
		c0,0.1-0.1,0.1-0.3,0.1c-1,0-2.1-0.1-2.2-0.1c0,0-1.1,0.1-1.6,0.1c-0.2,0-0.3,0-0.3-0.1c0-0.1,0-0.1,0.1-0.1c0.2,0,0.4,0,0.5-0.1
		c0.4-0.1,0.4-0.5,0.5-1c0.1-0.8,0.1-2.2,0.1-4V54.9z M49.4,56.5c0,0.1,0,0.2,0.1,0.2c0.3,0.2,1.1,0.3,1.8,0.3
		c0.4,0,0.9-0.1,1.3-0.3c0.6-0.4,1.1-1.4,1.1-2.8c0-2.3-1.2-3.7-3-3.7c-0.5,0-1,0.1-1.2,0.1c-0.1,0-0.1,0.1-0.1,0.2V56.5z"/>
	<path class="st3" d="M66.4,49.3c3.9,0,6.9,2.6,6.9,6.9c0,4.1-2.8,7.5-7,7.5c-4.8,0-6.8-3.9-6.8-7.2C59.5,53.5,61.6,49.3,66.4,49.3z
		 M66.8,63c1.6,0,4.8-1,4.8-6.3c0-4.4-2.6-6.8-5.3-6.8c-2.9,0-5.1,2-5.1,6C61.1,60.2,63.6,63,66.8,63z"/>
</g>
<g>
	<path class="st4" d="M85.4,62l-1.3-3.3H80L78.7,62h-1.2l4.1-10.4h1L86.7,62H85.4z M83.8,57.6l-1.2-3.2c-0.2-0.4-0.3-0.9-0.5-1.5
		c-0.1,0.5-0.3,1-0.4,1.5l-1.2,3.2H83.8z"/>
	<path class="st4" d="M93.2,62v-5c0-0.6-0.1-1.1-0.4-1.4s-0.7-0.5-1.4-0.5c-0.8,0-1.4,0.2-1.8,0.7c-0.4,0.4-0.6,1.2-0.6,2.2V62h-1.2
		v-7.8h1l0.2,1.1h0.1c0.2-0.4,0.6-0.7,1-0.9c0.4-0.2,0.9-0.3,1.5-0.3c0.9,0,1.6,0.2,2.1,0.7c0.5,0.5,0.7,1.2,0.7,2.2V62H93.2z"/>
	<path class="st4" d="M101.6,62l-0.2-1.1h-0.1c-0.4,0.5-0.8,0.8-1.2,1c-0.4,0.2-0.9,0.3-1.4,0.3c-0.8,0-1.4-0.2-1.8-0.6
		s-0.7-1-0.7-1.7c0-1.6,1.3-2.4,3.8-2.5l1.3,0v-0.5c0-0.6-0.1-1.1-0.4-1.3c-0.3-0.3-0.7-0.4-1.3-0.4c-0.6,0-1.4,0.2-2.2,0.6
		l-0.4-0.9c0.4-0.2,0.8-0.4,1.3-0.5c0.5-0.1,0.9-0.2,1.4-0.2c0.9,0,1.6,0.2,2.1,0.6c0.4,0.4,0.7,1.1,0.7,2V62H101.6z M98.9,61.2
		c0.7,0,1.3-0.2,1.7-0.6c0.4-0.4,0.6-1,0.6-1.7v-0.7l-1.2,0c-0.9,0-1.6,0.2-2,0.4c-0.4,0.3-0.6,0.7-0.6,1.2c0,0.4,0.1,0.7,0.4,1
		C98.1,61,98.5,61.2,98.9,61.2z"/>
	<path class="st4" d="M106.1,62h-1.2V51h1.2V62z"/>
	<path class="st4" d="M107.3,54.2h1.3l1.7,4.4c0.4,1,0.6,1.7,0.7,2.2h0.1c0.1-0.2,0.2-0.7,0.4-1.2c0.2-0.6,0.8-2.4,1.9-5.4h1.3
		l-3.3,8.8c-0.3,0.9-0.7,1.5-1.2,1.9c-0.4,0.4-1,0.5-1.6,0.5c-0.4,0-0.7,0-1.1-0.1v-0.9c0.3,0.1,0.5,0.1,0.9,0.1
		c0.8,0,1.4-0.5,1.7-1.4l0.4-1.1L107.3,54.2z"/>
	<path class="st4" d="M118.4,61.2c0.2,0,0.4,0,0.6,0c0.2,0,0.3-0.1,0.5-0.1v0.9c-0.1,0.1-0.3,0.1-0.6,0.2c-0.2,0-0.5,0.1-0.7,0.1
		c-1.5,0-2.3-0.8-2.3-2.4v-4.6h-1.1v-0.6l1.1-0.5l0.5-1.7h0.7v1.8h2.3v0.9h-2.3v4.6c0,0.5,0.1,0.8,0.3,1.1
		C117.7,61,118,61.2,118.4,61.2z"/>
	<path class="st4" d="M120.9,52.1c0-0.3,0.1-0.5,0.2-0.6c0.1-0.1,0.3-0.2,0.5-0.2c0.2,0,0.4,0.1,0.5,0.2s0.2,0.3,0.2,0.6
		c0,0.3-0.1,0.5-0.2,0.6s-0.3,0.2-0.5,0.2c-0.2,0-0.4-0.1-0.5-0.2C120.9,52.6,120.9,52.4,120.9,52.1z M122.2,62H121v-7.8h1.2V62z"/>
	<path class="st4" d="M127.7,62.1c-1.1,0-2-0.3-2.6-1s-0.9-1.7-0.9-2.9c0-1.3,0.3-2.3,0.9-3c0.6-0.7,1.5-1.1,2.7-1.1
		c0.4,0,0.7,0,1.1,0.1s0.7,0.2,0.9,0.3l-0.4,1c-0.3-0.1-0.5-0.2-0.8-0.3s-0.6-0.1-0.8-0.1c-1.6,0-2.4,1-2.4,3c0,1,0.2,1.7,0.6,2.2
		s1,0.8,1.7,0.8c0.6,0,1.3-0.1,2-0.4v1C129.2,62,128.5,62.1,127.7,62.1z"/>
	<path class="st4" d="M136.6,59.9c0,0.7-0.3,1.3-0.8,1.7s-1.3,0.6-2.3,0.6c-1,0-1.8-0.2-2.4-0.5v-1.1c0.4,0.2,0.8,0.3,1.2,0.4
		c0.4,0.1,0.8,0.2,1.2,0.2c0.6,0,1.1-0.1,1.4-0.3c0.3-0.2,0.5-0.5,0.5-0.9c0-0.3-0.1-0.6-0.4-0.8c-0.3-0.2-0.8-0.5-1.5-0.8
		c-0.7-0.3-1.2-0.5-1.5-0.7c-0.3-0.2-0.5-0.4-0.7-0.7c-0.1-0.3-0.2-0.6-0.2-0.9c0-0.6,0.3-1.1,0.8-1.5c0.5-0.4,1.2-0.5,2.1-0.5
		c0.8,0,1.7,0.2,2.5,0.5l-0.4,1c-0.8-0.3-1.5-0.5-2.1-0.5c-0.6,0-1,0.1-1.3,0.3s-0.4,0.4-0.4,0.7c0,0.2,0.1,0.4,0.2,0.5
		s0.3,0.3,0.5,0.4c0.2,0.1,0.7,0.3,1.4,0.6c0.9,0.3,1.5,0.7,1.9,1S136.6,59.4,136.6,59.9z"/>
</g>
</svg>
