<svg id="svg4141" xmlns="http://www.w3.org/2000/svg" viewBox="0 0 107 55"><defs><style>.cls-1{fill:#fefefe;}</style></defs><title>hawaii-county-logo-bw</title><g id="layer1"><g id="a3049"><g id="g3013"><path id="path3015" class="cls-1" d="M14.55,45.14A38.39,38.39,0,0,1,28.76,19.94,37.74,37.74,0,0,1,39,14.11l.87-.33.94-.31,1-.31,1.2-.32a37,37,0,0,1,5.47-1,33.22,33.22,0,0,1,3.63-.2,35.68,35.68,0,0,1,4.28.16l1,.11A40.56,40.56,0,0,1,63,13a42.57,42.57,0,0,1,5.12,1.81l.94.43c.37.17.94.45,1.27.62l.9.47.42.23,1.46.86c.15.06,2,1.33,2.66,1.83.85.64,2.09,1.64,2.57,2.09,1.13,1,1.78,1.68,2.39,2.34s.86.93,1.55,1.74c.22.26,1.28,1.62,1.48,1.9.78,1.1,1.06,1.52,1.55,2.3.31.49.6,1,.66,1.07l.48.87a38.37,38.37,0,0,1,4.39,13.55"/></g></g><path id="path3032" d="M16,53.93l-.24-2.84c-.11-1.27-.2-2.39-.2-2.48s0-.2.23-.41a7.69,7.69,0,0,1,2.06-1.37,1.47,1.47,0,0,0,.37-.23A6.52,6.52,0,0,0,19,45c.19-.48.44-1.08.57-1.34A7.11,7.11,0,0,0,19.9,43a5.63,5.63,0,0,1,.42-1,1.62,1.62,0,0,0-.05-1.86,2.09,2.09,0,0,1-.2-.53c0-.09,0-.15-.14-.21s-.19-.09-.67-.06c-.84,0-1.55-.1-1.63-.32,0,0,0-.05.13-.05a2.79,2.79,0,0,0,.43-.06,6.47,6.47,0,0,1,1.13-.06h.84l.49-.19a4.16,4.16,0,0,1,2.16-.34,11.15,11.15,0,0,1,1.23.33,9.08,9.08,0,0,0,1,.28,2.39,2.39,0,0,1,.83.37c.24.14.26.15.44.1a5.87,5.87,0,0,0,.68-.27l.61-.27.15-.07a12.05,12.05,0,0,1,2.05-1c.18,0,.64-.21,1-.35l1.79-.67c1.55-.56,1.79-.65,1.87-.7a.39.39,0,0,1,.16,0s.09,0,.1,0a1.13,1.13,0,0,1,.28-.14l1-.44a4.23,4.23,0,0,1,.92-.37,1.9,1.9,0,0,0,1.23-.71c.15-.22.21-.26.65-.47.27-.13.88-.39,1.36-.57s.88-.36.9-.37a4.18,4.18,0,0,1,1.41-.52c.15,0,.21.08.08.12s-.09,0-.09.08a7.07,7.07,0,0,1-1.87,1l-.51.22A14.26,14.26,0,0,0,38,34.94a24,24,0,0,1-5.2,2.32c-1.42.5-3,1.08-3.48,1.3a19.18,19.18,0,0,0-2.18,1.13.53.53,0,0,0-.13.23c0,.13,0,.14.21.28a6.66,6.66,0,0,0,.6.31c.2.09.59.29.87.45a6.08,6.08,0,0,0,1.61.64c.37.06.62,0,2-.71A8.85,8.85,0,0,0,34,40a3.85,3.85,0,0,1,.58-.33,14.59,14.59,0,0,0,1.37-.74.45.45,0,0,1,.19-.08s.07,0,.07,0A8.44,8.44,0,0,1,37.43,38c.36-.18,1.36-.73,1.77-1l1.53-1c.7-.46,1.52-1,1.84-1.13l.81-.43a6.58,6.58,0,0,0,1.42-1c.36-.35.53-.47.66-.47s.21.1.16.15,0,0,0,0-.41.63-.86,1a8.08,8.08,0,0,1-1.43.85l-.59.28s-1,.56-1.46.8a9.39,9.39,0,0,0-.94.64c-.05.06-1,.73-1.42,1-.26.18-.67.42-.91.54a6.31,6.31,0,0,0-.57.33c-.12.09-.95.6-1.38.85l-1.25.71-.07,0s-1.22.72-2,1.16a6.23,6.23,0,0,0-1,.63c-.09.12-.12.34-.05.41a5.33,5.33,0,0,0,1.83,1,3.27,3.27,0,0,1,.52.22s.06,0,.11,0a2.84,2.84,0,0,1,.55.2l1,.44a15.35,15.35,0,0,1,1.79.81l.26.15c.13.07.51.3.83.51l.8.5a.6.6,0,0,1,.21.16,0,0,0,0,0,.05,0,7.46,7.46,0,0,1,.71.33,5.38,5.38,0,0,0,1.63.59c.34,0,.39,0,.48-.13a.53.53,0,0,0,0-.5c-.09-.19-.16-.21-.43-.13s-.23.06-.32,0c-.25-.16,0-.55.71-1.37a1,1,0,0,0,.23-.33c0-.2-.13-.33-.52-.53s-.7-.47-.7-.58a4.79,4.79,0,0,1,.68-.88c.23-.24.28-.32.28-.44s-.08-.3-.59-.34c-.19,0-.31,0-.32-.08s.32-.39.51-.45a2.86,2.86,0,0,1,1.06,0,1.8,1.8,0,0,0,.6.15,1.39,1.39,0,0,0,.43-.16l.3-.16.64,0,.64,0,.07-.13a5.77,5.77,0,0,0,.22-.67c.08-.3.21-.7.29-.89a11,11,0,0,1,.75-1.44,3.72,3.72,0,0,0,.19-.32c.07-.13.07-.15,0-.25s-.1-.11-.3-.11a2.33,2.33,0,0,0-1.43.61l-.28.25-.35.31-.33.28a2,2,0,0,1-.66.39c-.25,0-.25,0-.11-.45a1.19,1.19,0,0,1,.43-.69,3.79,3.79,0,0,1,.64-.48,4.4,4.4,0,0,1,1-.53s.08,0,.08,0a1,1,0,0,1,.3-.17A2.22,2.22,0,0,1,47,37a1.81,1.81,0,0,0,.68-.17c.27-.14.28-.17.14-.51a4.87,4.87,0,0,1-.37-1.29v-.24h.25a.64.64,0,0,1,.41.11c.16.11.17.13.31.68a3.23,3.23,0,0,0,.48,1.2c.06.05.14,0,.52,0a5.61,5.61,0,0,1,.75-.07,1,1,0,0,1,.59.15,4.8,4.8,0,0,0,.64.26,1.42,1.42,0,0,1,.44.21,1.77,1.77,0,0,1,.42.91c0,.28,0,.29-.46.07-.23-.11-.54-.28-.71-.38a1.07,1.07,0,0,0-.7-.2,1.55,1.55,0,0,1-.57-.11c-.13-.06-.18-.07-.25,0a.23.23,0,0,0-.1.36.78.78,0,0,0,.1.17,13.63,13.63,0,0,1,.8,1.38,8.26,8.26,0,0,1,.77,3.15,55.64,55.64,0,0,1,.44,5.92c0,1.48.05,1.49.3,1.65.09.06.11.05.22-.07s.27-.49.31-1.14a31.31,31.31,0,0,1,1-5.81c.11-.37.3-1.15.42-1.74s.24-1.11.26-1.17a2.26,2.26,0,0,0,.07-.42l0-.3h-.13a.5.5,0,0,1-.54-.45,4,4,0,0,1,.8-1.8c.36-.54.4-.59.45-.59s0-.35,0-.55a1.83,1.83,0,0,0-.56-.66,1.9,1.9,0,0,0-.36-.14,1.15,1.15,0,0,1-.39-.22,2.39,2.39,0,0,0-.49-.3c-.35-.16-.44-.23-.55-.44s-.15-.39,0-.53.42-.17,1.16.07a7.36,7.36,0,0,0,1.66.37,2,2,0,0,1,.88.26s.08,0,.18,0c.53,0,.69-.55.53-1.85-.05-.4-.11-1.23-.14-1.95a13.49,13.49,0,0,0-.35-3.29c-.18-.73-.33-.86-1-.9-.35,0-.45,0-.51-.11s0-.2.11-.28.11-.08,0-.55A4.25,4.25,0,0,1,55,24c0-.28.12-.78.16-1.11A6.79,6.79,0,0,1,56,19.85c.29-.32.3-.24.07.52a7.23,7.23,0,0,0-.35,1.34c0,.31,0,.67,0,.67a2.78,2.78,0,0,0,.24-.47,21.79,21.79,0,0,1,1-2,3.13,3.13,0,0,1,.75-.79s-.1.34-.38.82a6.93,6.93,0,0,0-.66,1.35c-.35.88-.4,1.05-.37,1.2s.1.25.16.25a4.5,4.5,0,0,0,.46-.47A6.34,6.34,0,0,1,58.36,21c.27-.14.27-.14.43-.07l.16.08-.13.16c-.32.4-.18.84.26.84.21,0,.37-.11.6-.4a2.48,2.48,0,0,1,.75-.72c.21-.05.25-.48.08-.83l-.11-.22.11-.1c.15-.13.17-.12.35,0a1,1,0,0,1,0,1.37c-.06.08-.14.15-.17.15a.08.08,0,0,0-.07.06,4.15,4.15,0,0,1-.91.78c-.47.31-.58.29-1-.14-.2-.19-.3-.26-.39-.26s-.51.17-.89.56a3.11,3.11,0,0,0-1,2.28V25l.15.08a1.92,1.92,0,0,0,.51.12c.34,0,.72.18.72.28s0,0,.07,0a2.68,2.68,0,0,1,.76.54,6.77,6.77,0,0,1,1.28,1.8,7.41,7.41,0,0,0,1.14,1.31l.64.68.46.5.35.39a6.4,6.4,0,0,0,1.07,1,10.09,10.09,0,0,0,1.05.57l1.1.54c.2.1.47.23.59.27a4.92,4.92,0,0,1,1.29.72s0,0,.06,0a3.31,3.31,0,0,1,.74.54l.18.16.49.46c.45.43,1.21,1.14,1.56,1.45l.65.52.75.6c.21.18.27.21.44.21h.2l.3-.47c.16-.26.41-.62.54-.8a9.37,9.37,0,0,1,1.1-1.16,5.36,5.36,0,0,1,4.82-.81,2.44,2.44,0,0,1,.78.37s0,0,0,0a.79.79,0,0,1,.3.15,5.7,5.7,0,0,1,1.66,1.67,5.92,5.92,0,0,1,.66,1.27c.23.51.34.71.42.75a5.83,5.83,0,0,0,2.51-.3c.78-.17.84-.18,1-.12s.18.07.18.24,0,.17-.05.16,0,0,0,0a3.52,3.52,0,0,1-1.09.48,2.33,2.33,0,0,1-.92.18,2.37,2.37,0,0,0-.46,0l-.24.13a4.86,4.86,0,0,0-1.12.82c-.28.27-.34.31-.42.27s-.33-.26-.33-.33,0-.06-.09-.06a1.64,1.64,0,0,0-.65.33c-.1.09-.13.1-.29.06a.42.42,0,0,0-.38.05.91.91,0,0,0-.29.22c-.16.23-1.13,2.23-1.23,2.53,0,.05,0,0-.07,0a.38.38,0,0,1,0-.26c.06-.26.05-.48,0-.55s-.08,0-.13,0a47.69,47.69,0,0,0-1.89,4.52l-.17.43-.27.13c-.48.22-.56.54-.3,1.11l.11.24-.33.81c-.37.92-.77,1.86-1,2.36a18.08,18.08,0,0,0-.89,2.27.24.24,0,0,0,.08.16c.3.27.67.23,1.28-.13a.77.77,0,0,1,.23-.11,0,0,0,0,0,0,0,1.33,1.33,0,0,1,.27-.25c.15-.12.45-.38.66-.59a5.3,5.3,0,0,1,.43-.39.07.07,0,0,0,0-.06,3.24,3.24,0,0,1,.34-.44c.19-.22.45-.55.58-.73l.54-.74c.31-.43,1-1.41,1.86-2.78.28-.43.61-.92.75-1.09A6.54,6.54,0,0,0,82,46.7a8.41,8.41,0,0,1,.52-.88,2.26,2.26,0,0,0,.16-.27,1.67,1.67,0,0,1,.31-.42s0,0,0-.06a4.36,4.36,0,0,1,.55-.85c.14-.17.17-.19.35-.19a.68.68,0,0,1,.35.09c.19.12.19.21,0,1.19a21,21,0,0,0-.7,6.72c0,2.64,0,2.73.1,2.81s.09.08.25,0a3.48,3.48,0,0,0,.91-1,1.58,1.58,0,0,1,.26-.34s0,0,0-.07a2.6,2.6,0,0,1,.2-.46,17.42,17.42,0,0,0,.93-2.43A11.74,11.74,0,0,0,87,47.92c0-.24.15-1,.24-1.43A5.27,5.27,0,0,1,88,44.33c.24-.26.25.06,0,.47a8.25,8.25,0,0,0-.38,4.64c.2,1.24.28,1.83.3,2.17a1.23,1.23,0,0,0,.29.83,8.33,8.33,0,0,1,.9,1.87,2.86,2.86,0,0,1,.3,1.14m-65.1-.11c-.44-.17-.65-.2-.73-.1s-.22.09-.64.14M28.56,55l-.14-.1-.33.17a2,2,0,0,0-.38.23m10.19.09c-.18-.09-.19-.09-1.15,0-.53,0-1.59.06-2.36.07m4.73,0a.14.14,0,0,0,.11-.14c0-.09,0-.11-.18-.13a.5.5,0,0,0-.34.06l-.39.17m42.82-.37c.11-.11.11-.13.08-.45a1.18,1.18,0,0,1,.1-.69,3.36,3.36,0,0,1,.54-.94c.07-.09.08-.13,0-.2s-.18-.09-.31.06-.21.14-.21.07a1,1,0,0,1,.07-.2c.11-.26.09-.32-.13-.42s-.2-.12-.22-.25,0-.15-.15-.14-.18,0,.42-.94c.3-.47.4-.67.38-.73s-.27-.12-.3,0a1.12,1.12,0,0,1-.19.26.57.57,0,0,1-.34.21c-.27,0-.28.05-.28.25a.79.79,0,0,1-.19.47c-.38.58-.68,1.07-.76,1.23s-.09.16-.11.16,0,0,0,.05a1.17,1.17,0,0,1-.18.29,1.14,1.14,0,0,0-.3.85c0,.41.15.88.29.9a2.24,2.24,0,0,0,.47-.08l.37-.09.23.09a1.6,1.6,0,0,1,.39.22.77.77,0,0,0,.19.13.44.44,0,0,0,.15-.11Zm-15.7-.13c.07,0,.11-.07.09-.07s0,0,0-.1a.75.75,0,0,0,.07-.5c0-.06-.07,0-.33.26s-.19.4-.07.44l.08,0,.13-.06Zm-5.53-.13a3.6,3.6,0,0,0,1.32-1A3.27,3.27,0,0,0,62,52.9a.79.79,0,0,1,.33-.4,1.5,1.5,0,0,0,.32-.3.59.59,0,0,0,0-.51c-.12-.12-.26-.05-.62.29s-.36.35-.59.36H61.2l-.13.24c-.17.3-.24.35-.39.27a.8.8,0,0,0-.3-.06h-.19l-.07.23a1.61,1.61,0,0,1-.16.36c-.11.16-.11.18,0,.4A1,1,0,0,1,60,54a.87.87,0,0,1-.35.24l-.11,0-.2.11a.23.23,0,0,0-.17.24c0,.14,0,.17.09.2a1,1,0,0,0,.62,0Zm7.92,0a1.46,1.46,0,0,0,.39-.16.43.43,0,0,1,.29-.08c.41,0,.45,0,.53-.08a.35.35,0,0,0,.07-.21c0-.09,0-.11-.23-.15s-.22-.07-.23-.12a1,1,0,0,1,.24-.46,1.28,1.28,0,0,0,.15-.25c.08-.17.08-.21,0-.3a.19.19,0,0,0-.13-.11c-.08,0-.18-.21-.26-.51s-.13-.31-.48-.13a5.44,5.44,0,0,0-1.16.74,2.17,2.17,0,0,0-.55,1.49v.35l.24,0a3.39,3.39,0,0,0,1.11,0Zm2.5-.28.42-.23a2.07,2.07,0,0,1,.85-.41.75.75,0,0,1,.28,0s.2-.11.38-.29c.54-.51.8-.74.88-.74a.38.38,0,0,0,.15-.1l.22-.18a1.58,1.58,0,0,0,.3-.44,1.91,1.91,0,0,1,1-1.07c.13,0,.16-.07.25-.3a2,2,0,0,1,.55-.88c.24-.23.26-.27.26-.44s0-.18,0-.18a1.73,1.73,0,0,0-.34.28,2.75,2.75,0,0,1-.32.28s0-.2.12-.4.07-.3-.08-.26-.25.14-.94.89c-.32.35-.78.82-1,1a4.8,4.8,0,0,0-.57.66c-.25.41-.7.63-.67.33a.39.39,0,0,1,.08-.2c.08-.09.09-.22,0-.22A13.1,13.1,0,0,0,70,53.25l-.29.31V54c0,.43.09.64.24.64a1.38,1.38,0,0,0,.34-.13ZM71,53.09a.6.6,0,0,1,.29-.39c.23-.06.25.11,0,.32S71,53.22,71,53.09ZM21,54.17c.19-.19.2-.19.65-.17s.64-.38.93-1.43a34.59,34.59,0,0,0,.9-6.24,1.12,1.12,0,0,0-.14-.67.84.84,0,0,1-.11-.62,7.56,7.56,0,0,1,.16-.91,5.1,5.1,0,0,0,.11-2.06,10.65,10.65,0,0,0-1.05-2.93c-.2-.39-.25-.44-.38-.48s-.38,0-.51.28-.11.26-.14.9a2.57,2.57,0,0,1-.38,1.5,9,9,0,0,0-.58,1.56l-.24.77a1,1,0,0,0,0,.14l-.12.48a17.09,17.09,0,0,0-.64,2.86,2.62,2.62,0,0,1-.22,1.08.35.35,0,0,1-.34.25c-.14,0-.17.07-.52.66-.66,1.12-.66,1.14-.71,2a3.4,3.4,0,0,1-.13.89.56.56,0,0,0,0,.52l.23.73a1.33,1.33,0,0,0,.35.69.74.74,0,0,0,.28.21,1.85,1.85,0,0,0,.62-.61,2.42,2.42,0,0,1,.19-.29c.1-.14.11-.14.21-.08s.22.08.32-.12a7.77,7.77,0,0,1,.66-1,.34.34,0,0,0,.08-.12s0,0,.09-.05h.09l-.09.43c0,.23-.12.76-.15,1.17-.08.87-.08.87.27.87.17,0,.22,0,.37-.18Zm-.16-3.82c0-.12,0-.33.11-.33s.08,0,.05.16a1.12,1.12,0,0,1,0,.2c0,.05-.09,0-.12,0Zm21.57,3.89c.05-.05-.09-.17-.22-.18s-.29.17-.09.23a.54.54,0,0,0,.31,0ZM54.52,54c.31-.15.51-.37.51-.57s-.07-.23-.47-.25-.37,0-.42.05A2.13,2.13,0,0,0,54,54c0,.1,0,.11.15.08A2.76,2.76,0,0,0,54.52,54Zm-6.82-.19a3.91,3.91,0,0,0,1-.39,1.06,1.06,0,0,0,.26-.59c0-.24-.15-.26-.67-.07l-.21.08-.14-.13c-.28-.26-1-.87-1.12-1s-.22-.11-.22.17a2.47,2.47,0,0,0,.17.83,1.67,1.67,0,0,0,.28.16c.2.1.23.13.24.27s0,.17-.16.29a.79.79,0,0,1-.22.14c-.05,0-.16.16-.21.3l0,.1.32,0a6.08,6.08,0,0,0,.73-.14Zm17.49-.06a1.39,1.39,0,0,1,.31-.17s0,0,0,0a1.63,1.63,0,0,1,.3-.26,2.34,2.34,0,0,0,.43-.42,12.52,12.52,0,0,0,.84-1.7c0-.18,0-.22-.07-.47l-.12-.27.22-.41a3.63,3.63,0,0,0,.22-.46s0-.06-.09-.07-.41.25-.72,1.05a2.65,2.65,0,0,1-.58,1,2,2,0,0,0-.28.4.58.58,0,0,1-.13.21s0,0,0,.06a1.56,1.56,0,0,1-.15.34l-.38.71c-.17.31-.22.46-.2.54s0,.11.07.11a1.5,1.5,0,0,0,.3-.17Zm-42,0c.1-.06.1-.08.07-.35l0-.29.19-.16c.17-.15.19-.17.14-.27a.38.38,0,0,0-.41-.13c-.1,0-.28.37-.36.71s-.09.39,0,.52.21.1.4,0Zm9.47,0a.23.23,0,0,0,.13-.07c.06-.06.06-.09,0-.27a4.88,4.88,0,0,0-.46-.64l-.46-.55c-.67-.8-.82-1.11-.63-1.24s.26,0,.5.17a2.91,2.91,0,0,0,1,.53,7.91,7.91,0,0,1,1.6.78c.46.29.82.43.94.39s.06,0,.06-.05a5.38,5.38,0,0,0-.87-.87,11.42,11.42,0,0,1-1.61-1.7,18.52,18.52,0,0,0-1.64-1.88A42.57,42.57,0,0,1,28,44.77c-.39-.52-.49-.6-.71-.6h-.13l0,.24c0,.19,0,.24,0,.24s-.43-.34-.55-.77c-.08-.24-.36-1-.4-1l-.34-.63a6.25,6.25,0,0,0-1.07-1.64,7.46,7.46,0,0,0-1.72-1.37c-.1,0-.07.17.16.73A14.39,14.39,0,0,1,24,42.76a6.75,6.75,0,0,0,.53,2.09,19.83,19.83,0,0,0,1,1.8c.21.32.86,1.2.93,1.27s.63.82.73,1a.8.8,0,0,1,.12.51v.31l.17,0c.45,0,.47,0,.63.19a.47.47,0,0,1,.12.43c0,.25,0,.38.34.73a3.45,3.45,0,0,1,.37.51,1.17,1.17,0,0,0,.31.37l.18.13.22.12a2.86,2.86,0,0,1,.44.3,5.51,5.51,0,0,0,2.53,1.26l.12,0Zm-2.15-3.4a1.63,1.63,0,0,1-.36-.28c-.15-.19-.1-.43.09-.43s.65.55.65.79-.06.11-.38-.08Zm7.22,3c.13-.09.07-.22-.14-.29s-.19-.07-.19-.27a.88.88,0,0,0-.37-.73,4.53,4.53,0,0,1-.69-.73,2,2,0,0,0-.41-.4,1.73,1.73,0,0,0-.71-.28c-.08,0,0,.27.09.47a1.11,1.11,0,0,1,.13.25,0,0,0,0,0,0,0s.05,0,.07.07-.24-.12-.43-.33a1.83,1.83,0,0,0-.61-.44c-.11,0-.08.12.07.29l.35.43c.27.36.54.58.69.58s.12,0,.12-.15v-.15l.16.19.33.36a4.17,4.17,0,0,1,.4.57c.23.39.33.48.55.55a.84.84,0,0,0,.54,0Zm18.85-.24a19.82,19.82,0,0,0,2.67-1.24,1.09,1.09,0,0,0,.22-.28,1.3,1.3,0,0,1,.11-.19,14.3,14.3,0,0,0,.6-1.38,1.88,1.88,0,0,0,0-.41c0-.36-.05-.35-.64,0-.26.17-.33.24-.4.4l-.09.2-.39,0a1.31,1.31,0,0,0-.77.22,6,6,0,0,0-.61.37l-.51.34a1.07,1.07,0,0,0-.46.48,3.06,3.06,0,0,0-.49,1.5c0,.08.38,0,.7-.07Zm-6.32-.38a1.11,1.11,0,0,0,.25-.21.64.64,0,0,0,.16-.44,1,1,0,0,0,0-.33s0-.92,0-2c0-1.4,0-2.09,0-2.48-.07-.77-.12-1.73-.18-3,0-.6-.06-1.18-.07-1.29,0-.33-.19-1.28-.26-1.57a2.5,2.5,0,0,1-.06-.38.45.45,0,0,0,0-.18s-.1-.28-.18-.53A3,3,0,0,0,49.25,39a.7.7,0,0,0-.3-.17c-.09,0-.1,0-.12.23a17.36,17.36,0,0,0-.1,1.89,3.14,3.14,0,0,0,.25.68c.25.54.28.62.18.62s-.41-.18-.41-.25a.05.05,0,0,0,0-.06s0,0,0,0,0-.1-.08-.16c-.24-.26-.32-.49-.44-1.28L48,39.31c0-.23-.06-.43-.06-.44s-.05,0-.11,0-.38.18-.71.86a6,6,0,0,0-.66,1.6,1.73,1.73,0,0,1-.15.48,2.53,2.53,0,0,0-.29.68c0,.09,0,.09-.27-.06s-.28-.16-.46,0-.28.42.1.79a.89.89,0,0,1,.37.74c0,.27-.07.29-.3.09s-.31-.17-.39-.07,0,.11.08.26a1.1,1.1,0,0,1,.13.25,0,0,0,0,0,0,0s0,.14,0,.32c0,.56,0,.53.76.6a2.87,2.87,0,0,1,.72.13c.24.11.36.11.49,0s.1-.13.1-.3a.57.57,0,0,1,.25-.51c.1-.06.12,0,.28.51s.13.44.32.53l.5.22a.81.81,0,0,1,.58.56c.13.37,0,.47-.36.3a1.5,1.5,0,0,0-.37-.11c-.41-.06-.56.31-.32.79a8,8,0,0,1,.31,1c.49,1.92.64,2.5.7,2.59a.8.8,0,0,0,.28.19.59.59,0,0,1,.22.14s0,0,0,0,.31.16.31.25a1.31,1.31,0,0,1-.33.4c-.29.27-.33.33-.33.47a.3.3,0,0,0,.24.31,1,1,0,0,0,.54-.08Zm37.34-.41a1.4,1.4,0,0,0,0-.94c-.12,0-.14,0-.14.5s0,.53.17.44Zm-41.43-.12c.05,0,0-.16,0-.26a.8.8,0,0,1-.09-.26,2.86,2.86,0,0,0-.23-.75.22.22,0,0,0-.19-.1c-.16,0-.16,0,0,.73s.18.74.4.69l.17,0ZM45,51.85a2.32,2.32,0,0,0-.17-1.35,1.44,1.44,0,0,0-.73-1,1.28,1.28,0,0,1-.26-.18.08.08,0,0,0-.07,0,2.37,2.37,0,0,1-.4-.22,5.81,5.81,0,0,0-1.55-.63,9.69,9.69,0,0,1-3-1.14A24.71,24.71,0,0,0,35,45.7a4.35,4.35,0,0,1-.89-.4,3.75,3.75,0,0,1-.73-.53.06.06,0,0,0-.05,0,1.19,1.19,0,0,1-.25-.13,2.31,2.31,0,0,0-.47-.2,2.89,2.89,0,0,1-.93-.46,9.42,9.42,0,0,1-1.1-.88.06.06,0,0,0-.05,0,5.58,5.58,0,0,1-.83-.66s0,0-.08,0a.14.14,0,0,1-.11,0,1.36,1.36,0,0,0-.25-.17,3.85,3.85,0,0,1-.5-.37,10.65,10.65,0,0,0-1.23-.86,3.18,3.18,0,0,1-.33-.27,4.22,4.22,0,0,0-2-.85c-.28.11.26,1,.91,1.46a8.71,8.71,0,0,0,1.22.73c.31.16.37.21.47.4a1.07,1.07,0,0,0,.64.55l.35.1A7.31,7.31,0,0,1,30,44a4.67,4.67,0,0,0,.5.43l.36.24A7.77,7.77,0,0,0,32,45.3c.06,0,3.4,1.67,4,2,.32.18.87.5,1.22.71a23.07,23.07,0,0,0,2.19,1.17l.26.12a2.85,2.85,0,0,0,.76.18.91.91,0,0,0,.27,0c.12,0,.37-.3.37-.37a.51.51,0,0,1,.23-.24,1.58,1.58,0,0,1,.3.24,3.32,3.32,0,0,0,.77.48c.63.31.76.4,1,.73s.27.74,0,.74a2.1,2.1,0,0,1-.54-.24,1.48,1.48,0,0,0-.61-.25c-.18,0-.19,0-.2.11s.08.21.74.54a2.68,2.68,0,0,1,.44.26s0,0,0,0a1.08,1.08,0,0,1,.34.12,4,4,0,0,0,1.31.45c.12,0,.15,0,.19-.13Zm22.72.07c.12,0,.15-.09.15-.18s0-.12-.18-.09-.34.1-.34.22,0,.11.11.11A.85.85,0,0,0,67.75,51.92Zm-15.63-.1a.94.94,0,0,0,.16-.76c0-.26-.07-.32-.25-.31a.61.61,0,0,0-.57.56,1.19,1.19,0,0,0,.18.56A.35.35,0,0,0,52.12,51.82Zm1.5-.41a3,3,0,0,0,.31-1,.69.69,0,0,0-.17-.63c-.1-.07-.12-.06-.22,0a.88.88,0,0,0-.22.31,2.27,2.27,0,0,0-.2,1.23.51.51,0,0,0,.5,0Zm-15.76-.18c0-.19-.09-.31-.52-.47a2.42,2.42,0,0,1-.35-.18c-.23-.14-.41-.16-.53,0s0,.41.74.66c.43.14.63.15.65,0Zm32.92-.12c.33-.2.39-.23.59-.22s.46-.09.66-.46a4.17,4.17,0,0,1,1.2-1.25,39.59,39.59,0,0,0,3.12-3,2,2,0,0,1,.32-.31s.06,0,0,0a1.36,1.36,0,0,1,.22-.34,13.27,13.27,0,0,0,.89-1.32,2.59,2.59,0,0,1,.26-.39.09.09,0,0,0,0-.08,3.09,3.09,0,0,1,.21-.49c.12-.23.28-.59.36-.8a3.45,3.45,0,0,1,.45-.77,3.45,3.45,0,0,0,.64-1.23c.06-.34,0-.34-1.26-.12a4.87,4.87,0,0,1-1.87.08c-.17,0-.19,0-.56.35a3.35,3.35,0,0,1-.43.37l-.41.18a3.55,3.55,0,0,0-1.1.89,9.83,9.83,0,0,1-.79.72c-.09,0-.07-.16,0-.33s.18-.27.3-.42c.26-.33.34-.47.33-.55v-.12c0-.1-.17-.13-.3,0a10.67,10.67,0,0,0-1.16,1.21,13.49,13.49,0,0,1-2.07,1.83,2.79,2.79,0,0,0-.34.34,2,2,0,0,1-.36.34.06.06,0,0,0-.05.05,3.1,3.1,0,0,1-.45.62.23.23,0,0,0-.08.11,2.15,2.15,0,0,1-.31.37,2.37,2.37,0,0,0-.44.61l-.2.44c0,.08-.14.27-.23.42a2.82,2.82,0,0,0-.32.66c0,.08,0,.11.16.19a2,2,0,0,1,.34.23c.14.12.17.13.42.11a5.07,5.07,0,0,0,.83-.21c.46-.15.58-.18.67-.14s.1.3-.22.4-.28.12-.28.26.05.17.22.31.26.27.16.39a.65.65,0,0,1-.38.17s-.11.06-.15.15a2,2,0,0,0-.19.76,2.07,2.07,0,0,0,.51,0h.47l0,.15c0,.14,0,.15.08.15a1.74,1.74,0,0,0,.47-.23ZM61.42,51a11,11,0,0,0,1.6-.8,2.47,2.47,0,0,1,.37-.2.06.06,0,0,0,.06,0,3.63,3.63,0,0,1,.41-.29c.92-.6,1-.66,1.24-1.17.38-.76.44-1.1.22-1.3s-.47-.06-.9.43a2.07,2.07,0,0,1-.58.47l-.36.22a1.46,1.46,0,0,1-.56.33l-.6-.05a3.08,3.08,0,0,0-.56,0,10.73,10.73,0,0,0-.88,1.85c-.25.74-.18.81.55.58Zm-6.28-.22a2.35,2.35,0,0,0,.89-.48,3.76,3.76,0,0,0,.5-1.57c0-.23-.11-.25-.5-.12a2.79,2.79,0,0,0-1.48.86,2.91,2.91,0,0,0-.18,1c0,.58,0,.6.77.35Zm12.93.1c.16-.1.29-.32.26-.43l0-.19c0-.07-.05-.12-.08-.12a1.63,1.63,0,0,0-.55.65c0,.07.13.18.21.18a.58.58,0,0,0,.21-.09Zm-19.62-.65c.12-.1.12-.22,0-.94-.08-.46-.1-.52-.21-.61a4,4,0,0,1-.82-.79,2,2,0,0,1-.1-.51c0-.36-.09-.46-.18-.34l-.31.42-.27.36,0,.24c0,.31,0,.38-.27.34l-.19,0v.17c0,.44.16.64.84,1.05a11.61,11.61,0,0,0,1.33.71.35.35,0,0,0,.15-.08Zm-13.77-.32a.62.62,0,0,0-.51-.52c-.11,0-.11,0-.09.14.06.3.6.64.6.38ZM58,49.38a23.82,23.82,0,0,0,2.45-1.2,2.08,2.08,0,0,0,1.1-1.22c.22-.56.28-.8.25-.91s-.05-.09-.21-.06a.67.67,0,0,0-.64.68c0,.18,0,.18-.14.16l-.27-.07c-.15-.06-.22,0-1.89.79-1,.48-1,.49-1.13,1,0,.13-.15.43-.23.67s-.15.44-.09.47S57.35,49.67,58,49.38Zm-4.28-.27a1,1,0,0,0,.35-.52l.17-.69c.37-1.49.49-2.27.36-2.39a1.28,1.28,0,0,1-.16-.38c-.11-.39-.11-.4-.28-.4a.62.62,0,0,0-.47.27,9.74,9.74,0,0,0-.35,2.36c0,.35-.08.77-.11.93a1.26,1.26,0,0,0,0,.87c.09.09.26.07.47,0ZM33.46,49c.11-.09.09-.27,0-.42s-.13-.12-.3-.1-.23.08-.15.39A.28.28,0,0,0,33.46,49Zm11.89-.44c.16-.18.18-.27.12-.64s-.21-1.21-.26-1.43l-.15-.61a2.51,2.51,0,0,0-.2-.58c-.2-.28-.4,0-.22.27a.72.72,0,0,1,.09.23c0,.09-.17.24-.27.24s-.08,0-.08.3a4.05,4.05,0,0,0,.35,1.42c.2.5.41.86.5.86a.22.22,0,0,0,.13-.08Zm10.19-.23a8.09,8.09,0,0,0,1.16-.47c.33-.17.55-.52,1.2-1.94a7.08,7.08,0,0,0,.38-1c0-.19-.27-.3-.55-.22a1.58,1.58,0,0,0-.79.71,2.22,2.22,0,0,1-.29.37,3.19,3.19,0,0,1-.35-.44c-.41-.57-.45-.57-.68-.05a7.24,7.24,0,0,0-.82,3.18c0,.1.14.09.73-.11Zm-11.46-.26s.06,0,.09-.09,0-.2-.07-.6c-.14-.61-.18-.72-.32-.89s-.4-.1-.46.6,0,.7.18.84a.83.83,0,0,0,.48.15l.1,0Zm21.77,0a.86.86,0,0,1,0-.13c0-.08,0-.1-.06-.1s-.18.08-.16.18.19.12.19.05ZM46,47.57s0,0,0,0,.07-.06.09-.17a5.09,5.09,0,0,1,.16-.57,1.56,1.56,0,0,0,.11-.48A.82.82,0,0,0,46,46a.26.26,0,0,0-.15.09c-.07.07-.08.16-.08.48a2,2,0,0,0,.2,1c.08,0,.13,0,.1,0Zm17-.6.61-.14.14-.3c.11-.26.12-.29.06-.39-.21-.37-1.41.09-1.63.62a.56.56,0,0,0-.06.27C62.23,47.12,62.37,47.11,63.06,47Zm4.36-.2a12,12,0,0,0,1.23-1.3,1.62,1.62,0,0,1,.33-.34.06.06,0,0,0,.05-.06,3.14,3.14,0,0,1,.74-.79,8.33,8.33,0,0,1,.75-.47,5.41,5.41,0,0,0,1.27-.87c.27-.26.34-.43.26-.6s-.3-.14-.68,0l-1.16.52c-.62.29-.71.32-.75.26s0-.12,0-.12a.07.07,0,0,0,.06-.05l0-.19c0-.14,0-.14-.23-.21a3.44,3.44,0,0,0-1.76.09l-.72.17-.49-.12a3,3,0,0,0-.51-.1,1.6,1.6,0,0,0,.06.37,3.49,3.49,0,0,1,0,1.36c-.1.35-.35.13-.41-.36a1.06,1.06,0,0,0-.06-.27c0-.07-.32-.07-.49,0a10.76,10.76,0,0,0-1.55,1.07c-.62.48-.67.52-.64.63a.52.52,0,0,0,0,.13l.35,0a2.87,2.87,0,0,1,1.21,0,3.36,3.36,0,0,0,.48.09A3.12,3.12,0,0,0,66,45l1-.78a3.73,3.73,0,0,1,1.57-.85c.13,0,.21,0,.23.06s0,.12-.23.25A12.16,12.16,0,0,0,66.81,45a9.76,9.76,0,0,0-1.09,1.12.39.39,0,0,0,.08.17l.08.1.56-.29c.66-.34.87-.41,1.09-.31s.17.15-.07.3-.54.55-.47.75.25.08.43,0Zm-8.5-.1c.45-.21,1-.63,1-.76s-.15-.2-.24-.2-.12,0-.17-.33-.13-.4-.21-.43-.37.24-.56.57a4.94,4.94,0,0,0-.47,1.23c0,.11,0,.11.19.09a2,2,0,0,0,.49-.16Zm2.3-1.35c.18-.16.16-.33,0-.37a.38.38,0,0,0-.38.12c-.12.1-.12.15,0,.28s.29.13.46,0Zm-16.68-1.1,0-.07a1.5,1.5,0,0,0-.44-.76c-.08,0-.13,0-.17,0a.07.07,0,0,1-.09,0s0,0,0,0a.06.06,0,0,1,0,.08,1.24,1.24,0,0,0-.26.7c0,.21,0,.23.12.27s.19,0,.47-.11l.36-.15Zm17.3.05A1.09,1.09,0,0,0,62,44l.19-.33c.09-.15.1-.18,0-.24s-.19,0-.45.19a.79.79,0,0,1-.25.16,2.64,2.64,0,0,1-.71-.56,4.61,4.61,0,0,1-.39-.51c-.11-.17-.34-.49-.51-.72a12.1,12.1,0,0,1-2-3.37c-.18-.54-.2-.68-.1-.72s.2.08.54.78.5.9.6.9a.45.45,0,0,0,.16-.11c.11-.1.12-.14.11-.39a.74.74,0,0,0,0-.28.43.43,0,0,1-.11-.16,7.14,7.14,0,0,0-1-1.36c-.13-.14-.21-.19-.3-.19a.79.79,0,0,0-.59.39l-.11.19,0,1c0,1.07,0,1.23-.16,1.41s-.27.13-.38-.08a1.74,1.74,0,0,1-.19-.82c0-.16,0-.48-.05-.73a1.09,1.09,0,0,0-.16-.59c-.06-.08-.16-.23-.21-.32s-.26-.37-.34-.37A4.6,4.6,0,0,0,55,39a31.69,31.69,0,0,0-.72,4.43c0,.13,0,.14.14.11a3.81,3.81,0,0,0,1.46-.62c.2-.25.2-.25.09-.44s-.08-.37.16-.44.17,0,.24.05a.36.36,0,0,1,.08.15.08.08,0,0,0,0,.07,3,3,0,0,1,.28.47c.36.68.38.72.55.83a1.34,1.34,0,0,0,1,.14,2.74,2.74,0,0,0,.43-.09c.1-.05.17-.33.17-.66s0-.29.12-.31.31.11.52.51a1,1,0,0,0,.29.38c.07,0,.13.09.13.1s0,0,.06,0a3.58,3.58,0,0,1,.54.27,6,6,0,0,0,.65.33.79.79,0,0,0,.65-.06ZM43,43.91c.14-.12.25-.8.13-.8a4.56,4.56,0,0,0-.87.56.39.39,0,0,0-.12.17s.05.07.12.08l.16,0A1,1,0,0,0,43,43.91Zm27.3-2.13.58-.14c.25-.07.5-.25.5-.35a8.19,8.19,0,0,0-1.21-1.12l-.86-.71a4.77,4.77,0,0,1-.63-.58s0,0,0,0-.56-.54-1-1.22a6.36,6.36,0,0,0-1.27-1.41A31,31,0,0,1,64,34a15.54,15.54,0,0,1-1.81-2c-.53-.75-.82-1.14-1.14-1.55l-.6-.77-.24-.3s-.26-.34-.7-.94-.89-1-1-1,0,.16.17.67a14.52,14.52,0,0,0,1.64,2.75l.38.52.58.8c.25.35.55.78.65,1a13.09,13.09,0,0,1,.77,1.42s0,.06,0,.06a2.24,2.24,0,0,1,.31.45,14.41,14.41,0,0,0,3,3.73l.65.58a12.93,12.93,0,0,1,1.83,2,1.68,1.68,0,0,0,.39.4,3.6,3.6,0,0,0,1.35,0Zm-4.21-.4c0-.1,0-.24,0-.24l-.19,0c-.24.07-.28.27-.06.35A.22.22,0,0,0,66.11,41.38Zm-1.88-.28c.05,0,.05-.06,0-.12L64,40.58c-.09-.18-.19-.35-.21-.37l-.25-.39-.86-1.41A9.24,9.24,0,0,1,62,37c-.15-.48-.37-1.1-.54-1.53a3.19,3.19,0,0,1-.16-.46.17.17,0,0,0,0-.1s-.18-.4-.36-.83l-.39-1c-.16-.35-.44-1-.49-1.14a.62.62,0,0,0-.08-.15,1.2,1.2,0,0,1-.1-.23c0-.11-.32-.66-.62-1.22s-.81-1.55-1.13-2.2a5.15,5.15,0,0,0-.78-1.37c-.21-.19-.36-.23-.48-.11s-.09.15,0,.85a14.85,14.85,0,0,1,.22,2.65,3.9,3.9,0,0,0,.53,2.47c.14.22.13.35,0,.48s-.35.29-.35.34.07.08.16.12a1.19,1.19,0,0,0,.62,0c.7-.06,1,0,1,.18a1.86,1.86,0,0,1-.4.21c-.5.22-.75.48-.58.59a1.25,1.25,0,0,0,.27.08c.22,0,.22,0,.38.37s.23.51.32.73a5.92,5.92,0,0,0,.75,1.35.85.85,0,0,1,.15.23.07.07,0,0,0,0,.06s.24.26.49.56l.52.61.23.26c.48.55,1,1.14,1.1,1.2a1.57,1.57,0,0,0,.31.13,3,3,0,0,1,1.24.73c.26.24.26.24.35.18Zm-5.52-9.35-.1-.3c0-.14-.1-.3-.12-.35s-.61-1.73-.61-1.78a0,0,0,0,1,0,0s0,0,0,0,0,0,0,0a1.67,1.67,0,0,1,.35.61l.16.37a4.18,4.18,0,0,1,.26.84c.06.46.06.58,0,.58A.07.07,0,0,1,58.71,31.76ZM81.44,39,82,39l.25,0s.06-.06.1-.15c.16-.33-.1-1.07-.61-1.74a1.75,1.75,0,0,1-.15-.22A8.31,8.31,0,0,0,81,36.1,4,4,0,0,0,79,35a4.54,4.54,0,0,0-3.92.78,2.69,2.69,0,0,1-.38.27s-.08,0-.08.08,0,.07-.08.1a6.27,6.27,0,0,0-.73.89,3.82,3.82,0,0,0-.5,1.07c-.06.3,0,.34.38.53a7.51,7.51,0,0,0,2.93.42c1.37,0,4.29,0,4.81,0ZM67.77,36.82A3.13,3.13,0,0,0,67,35.36a4.34,4.34,0,0,1-.4-.6,4.86,4.86,0,0,0-.26-.46,2.16,2.16,0,0,1-.22-.55,2.06,2.06,0,0,0-.14-.43.83.83,0,0,0-.55-.22c-.14,0-.16,0-.17.13a1.32,1.32,0,0,0,.29.63,5.74,5.74,0,0,1,.7,1s-.06.07-.14.09a.29.29,0,0,0-.19.39,2.86,2.86,0,0,0,.88.9c.22.17.49.39.61.5s.33.22.33.08Zm-9.91-.9c.1,0,.09-.35,0-.59l-.1-.2H57.5c-.22,0-.26,0-.38.15a.49.49,0,0,0-.14.23c0,.22.62.5.89.4ZM56,25.76c0-.07,0-.22-.09-.22s-.12.11-.09.2a.11.11,0,0,0,.18,0ZM84.43,43.52s.07-.22.15-.45a3.86,3.86,0,0,0,.18-.7,1.64,1.64,0,0,1,.52-1.27,6.18,6.18,0,0,1,1.36-.62.14.14,0,0,1,.07.13c0,.12-.09.33-.14.33s0,0,0,.06a2.52,2.52,0,0,1-.66.65s0,0,0,0a1.41,1.41,0,0,1-.17.29,1.82,1.82,0,0,0-.17.28,8.73,8.73,0,0,1-.57,1c-.17.23-.48.43-.48.3ZM29.52,40.7c0-.21.89-.7,2.6-1.42.55-.23,1.07-.44,1.16-.47.3-.08.35-.09.35-.05a6,6,0,0,1-1.44.85,11.61,11.61,0,0,1-2.45,1.16C29.53,40.81,29.52,40.8,29.52,40.7Zm54.76-2.27c-.2-.12-.22-.35,0-.45s.64-.18,1.28-.33c1.24-.29,1.53-.32,1.7-.15a.26.26,0,0,1,0,.39,4.88,4.88,0,0,1-1.41.4,3.71,3.71,0,0,1-1.53.15ZM83.47,37c-.15-.28,0-.42.87-.89.41-.22,1.52-.73,2-.89l.27-.1.12.11.12.11-.08.15a1.9,1.9,0,0,1-.6.56l-.78.4a7.2,7.2,0,0,1-1.63.63c-.18,0-.21,0-.25-.06Zm-11.39-.19-.27-.19-.36-.3a1.76,1.76,0,0,1-.31-.3s0,0-.06,0a1.68,1.68,0,0,1-.47-.48c0-.08,0-.22,0-.22l.11,0c.32-.06,1.12.51,1.58,1.12.21.28.25.44.11.52s-.13.06-.37-.1Zm10.39-1.1a2.15,2.15,0,0,1-.23-.93c0-.2,0-.3.42-.9.17-.28.35-.6.4-.71s.41-.73.71-1.21l.07-.13a3.93,3.93,0,0,1,.52-.73.1.1,0,0,0,.06-.08A.18.18,0,0,1,84.5,31c.05,0,.08,0,.13,0s.08.29-.12.76a14.68,14.68,0,0,1-.74,1.49,14.44,14.44,0,0,0-.65,1.33c0,.12.14.09.34-.06.44-.33.56-.42,1.27-1a3,3,0,0,1,.33-.25.79.79,0,0,0,.17-.13,1.44,1.44,0,0,1,.29-.2c.14-.06.15-.06.23,0a.37.37,0,0,1,0,.51,2,2,0,0,1-.52.52.06.06,0,0,0-.06.05,4.43,4.43,0,0,1-.73.62L84,35a4,4,0,0,1-1,.78c-.28.13-.42.13-.54,0Zm-9.71-.1a11.6,11.6,0,0,1-1.26-1.26l-.4-.46-.22-.24-.5-.55-.5-.55L69.35,32a6.26,6.26,0,0,1-1-1.22s0,0,0,0a1.77,1.77,0,0,1-.37-.38c-1.78-2.21-1.86-2.33-1.86-2.49s.13-.16.34-.12.26.13.7.58.54.56.54.58a2.91,2.91,0,0,0,.27.31c.15.16.56.63.92,1,.85,1,1.07,1.24,1.79,2l1.18,1.31c1.09,1.24,1.32,1.58,1.32,2,0,.17,0,.2-.09.21a.62.62,0,0,1-.28-.14Zm1.15-1c-.24-.09-.42-.32-.84-1.07-.22-.39-.4-.73-.4-.75a.18.18,0,0,0-.07-.09.2.2,0,0,1-.07-.13s0-.08,0-.09a8,8,0,0,1-.86-1.74c0-.15,0-.35.13-.35s.38.35.62.81.39.72.55,1a12,12,0,0,1,.9,1.65s0,.06,0,.06a1.73,1.73,0,0,1,.23.67c0,.13,0,.13-.21.06Zm.93-.36a.75.75,0,0,1-.13-.19,1,1,0,0,0-.11-.18s-.5-1.1-.85-2l-.41-1-.19-.48c-.75-2-2.36-6-2.58-6.47a4.05,4.05,0,0,1-.24-.63c-.07-.28,0-.34.14-.39s.91,1,1.57,2.6l.29.68a3,3,0,0,1,.22.63s0,.09,0,.1a8.29,8.29,0,0,1,.35.89c.61,1.67.76,2.06,1.16,3,.93,2.24,1.17,3.11.94,3.4a.13.13,0,0,1-.19,0Zm6.1-.43a4.57,4.57,0,0,1,.4-1.19c.44-1.08.93-2.35,1.09-2.82s.25-.51.41-.51.25,0,.25.17-.47,1.53-.72,2.17c-.17.45-.64,1.53-.67,1.55a.29.29,0,0,0-.07.14,1.48,1.48,0,0,1-.41.56.1.1,0,0,0-.08.07.13.13,0,0,1-.11.07C80.95,34.06,80.93,34,80.93,33.86Zm-3.86-.41c-.15-.37-.15-.35-.34-4.9a13.25,13.25,0,0,1,0-2.77.25.25,0,0,1,.37,0,35.9,35.9,0,0,1,.33,4.63c0,.47,0,1.3,0,1.85v1l-.15.16-.15.16-.06-.15Zm-1.13,0c-.09-.1-.15-.37-.25-1.2s-.12-1,0-1.14l.12-.12.09.1a1.86,1.86,0,0,1,.21.71l.16.82a1.19,1.19,0,0,1,0,.73c-.09.17-.22.22-.32.1Zm3.58-.1a12.34,12.34,0,0,1,.4-1.93l.52-2.17c.22-.89.42-1.67.44-1.73.11-.21.34-.32.47-.23s.09.11.09.27A17.22,17.22,0,0,1,81,29.7a.44.44,0,0,0,0,.18c0,.14-.56,2.28-.77,3a.79.79,0,0,1-.42.58c-.14.08-.19.07-.21-.07ZM78,33.12c-.07-.18-.05-.41.09-1.37s.14-.9.26-1l.13-.13.08.1c.11.13.11.55,0,1.42-.08.71-.08.74-.23,1s-.3.22-.36.05Zm-34.8-1c0-.05.1-.16.25-.28a7.11,7.11,0,0,1,1-.68,0,0,0,0,0,0,0,2.48,2.48,0,0,1,.49-.29,2.2,2.2,0,0,1,.74-.27.56.56,0,0,0,.39-.16c.21-.2.83-.71,1.26-1a14.65,14.65,0,0,0,1.76-1.5c1-1,1.34-1.37,1.52-1.51a12.59,12.59,0,0,1,1.82-.88c.54-.22.7-.37.75-.73A7.57,7.57,0,0,0,53.1,23a8.74,8.74,0,0,1-.2-1.13c0-.14,0-.16.14-.19s.25-.18.16-.48a2.73,2.73,0,0,0-1.71-1.57c-.31-.12-.31-.12-.35-.25s0-.1.25-.1a2.81,2.81,0,0,1,1.06.25,2.83,2.83,0,0,1,1.06,1.44c.05.15.18.58.27,1a9.39,9.39,0,0,0,.29,1,.87.87,0,0,1,.09.46,4.33,4.33,0,0,0,0,.67,2.86,2.86,0,0,1-.13,1.71c-.09.17-.09.19,0,.39s.14.31-.07.41a1.38,1.38,0,0,1-1.06,0c-.36-.12-.37-.12-.52,0a2,2,0,0,0-.31.2c-.25.2-.34.23-.44.18s-.13,0-.3.07c-.33.19-1.58,1.13-2.33,1.73l-.35.27-.31.24s-.9.69-1.2.9a6.19,6.19,0,0,1-.66.38,5,5,0,0,0-1.08.73,6.27,6.27,0,0,1-1.7.94c-.35.13-.53.14-.53,0Zm9.12-.72a7.76,7.76,0,0,1,.45-1.94,7,7,0,0,1,.7-1.64c.08-.09.09.13,0,.47s-.1.52-.24,1.34a2.3,2.3,0,0,1-.29.81.22.22,0,0,0-.06.13,3.23,3.23,0,0,1-.45.81c-.09.09-.1.09-.13,0Zm-2.12-.43a7,7,0,0,0,.27-.71l.18-.52.47-.39a3,3,0,0,0,.65-.67c.26-.41.52-.61.52-.4A2.47,2.47,0,0,1,52,29.38a10.4,10.4,0,0,1-1.75,1.75c-.08,0-.07,0,0-.19ZM32.1,30.21a1.46,1.46,0,0,1-.42-.28.94.94,0,0,1-.28-.6,3.74,3.74,0,0,1,.31-2.71,1.62,1.62,0,0,1,.22-.39s0,0,0-.08a2.12,2.12,0,0,1,.25-.47,7.8,7.8,0,0,0,.39-.7,1.63,1.63,0,0,1,.42-.57c.48-.45,1-.71,1.2-.66s.13.06,0,.26-.15.2-.43.37a2.35,2.35,0,0,0-.5.39,8.55,8.55,0,0,0-.61.93A12.61,12.61,0,0,1,32,26.93.08.08,0,0,0,32,27a1.82,1.82,0,0,1-.13.34,1.8,1.8,0,0,0-.15.85c0,.59,0,.65.21.88l.2.22a.71.71,0,0,0,.55.33c.63.11.77.19.67.37a1.06,1.06,0,0,1-1.22.23Zm2.56-.28c-.07-.07-.12-.15-.11-.19a7.3,7.3,0,0,1,1.66-.83c.22,0,.31,0,.29.21s-1,.85-1.48.9C34.81,30,34.78,30,34.66,29.93ZM37,28.12A8.87,8.87,0,0,1,37.3,27a.67.67,0,0,0,.06-.29.94.94,0,0,0-.55-.37,2.93,2.93,0,0,1-.83-.49,3.34,3.34,0,0,1-1.09-1.14l-.14-.28V23.29c0-1.72.06-1.9.63-2.49a7,7,0,0,0,.55-.63.88.88,0,0,1,.2-.23s0,0,0-.06a1.12,1.12,0,0,1,.64-.64s.06,0,.06,0a2.22,2.22,0,0,1,.78-.33,2.94,2.94,0,0,1,1.9.13,1.24,1.24,0,0,0,.28.11c.1,0,.36-.26.41-.42s.07-.15.09-.15,0,0,0-.09a9.19,9.19,0,0,1,.63-1.4A2.45,2.45,0,0,1,42,16c.13-.07.46-.25.73-.41a6.35,6.35,0,0,1,.58-.32A14.29,14.29,0,0,1,45.89,15a1.83,1.83,0,0,0,.46,0,2.19,2.19,0,0,0,.29-.3,6.43,6.43,0,0,1,1.11-1,1.43,1.43,0,0,1,.82-.34,4.09,4.09,0,0,1,.71-.09h.22l.35-.41.41-.49c.05-.07.07-.07.4,0a2.54,2.54,0,0,0,1.36.09.85.85,0,0,0,.27-.13.78.78,0,0,1,.28-.11l.24-.06.23.15a1,1,0,0,0,.75.23c.16,0,.2,0,.29.09s.31.25,1.18.28.89,0,1.31.32a3.94,3.94,0,0,1,.95,1A2.67,2.67,0,0,1,58,16.55c-.14.29-.18.24-.37-.5a3.93,3.93,0,0,0-1-1.85,2,2,0,0,0-1.52-.68,1,1,0,0,0-.81.32.58.58,0,0,1-.2.16c-.06,0-.23-.2-.52-.63s-.36-.49-.56-.6a1.51,1.51,0,0,0-1.12.06,1.33,1.33,0,0,1-1,0,.42.42,0,0,0-.4,0,1.09,1.09,0,0,0-.51.46c0,.08,0,.13,0,.26s.16.44.06.48-.18,0-.49-.05a2.36,2.36,0,0,0-1-.14,1.65,1.65,0,0,0-1.14.38c-.16.14-.19.18-.14.23s.07.26,0,.26-.07,0-.07,0-.14,0-.23.12a11.76,11.76,0,0,0-.66,1.67,9.25,9.25,0,0,1-.34.87,1.14,1.14,0,0,0-.17.7,3.62,3.62,0,0,0,.31,1.37,2.42,2.42,0,0,0,.34.43c.3.29.63.42,2.11.82a.79.79,0,0,1,.38.25.74.74,0,0,0,.24.19l.84-.18c.71-.17.79-.18.85-.11s.06.08,0,.19a1.53,1.53,0,0,1-.36.4,2,2,0,0,1-.3.16,1.62,1.62,0,0,1-1.77-.13.28.28,0,0,0-.16-.11c-.13,0-.38.27-.65.73A2.94,2.94,0,0,1,46,23.51a6.16,6.16,0,0,1-.88.1c-.67,0-.83.08-.94.25a1.21,1.21,0,0,1-.38.25,5.28,5.28,0,0,0-.49.25,2.1,2.1,0,0,1-1.14.27c-.7,0-.95.12-1.24.46A3.41,3.41,0,0,1,38,26.54c-.25,0-.27,0-.27.1a3.5,3.5,0,0,1-.33,1c-.15.28-.37.54-.37.44Zm2.43-2.47a6.26,6.26,0,0,0,1.28-.89l.19-.17-.24-.4a7.32,7.32,0,0,1-.78-1.61,6.39,6.39,0,0,1-.13-1.44l0-1.18-.14-.13a2.79,2.79,0,0,0-1.55-.51,2.12,2.12,0,0,0-1,.25,1.83,1.83,0,0,0-.67.75,1.14,1.14,0,0,1-.22.32s0,0,0,0,0,.07,0,.1a6,6,0,0,0-.9,1.09c-.11.24-.12.29-.12.88a5.92,5.92,0,0,1,0,.67,1.74,1.74,0,0,0,.17.75,2.43,2.43,0,0,0,.67.78l.22.17a.2.2,0,0,0,.09.05l.83.28c.42.14.94.3,1.15.36a1.44,1.44,0,0,0,1.23-.16Zm4-1.89a2,2,0,0,0,.75-.46c.26-.23.39-.27,1.16-.3l.7,0,.18-.16a1.06,1.06,0,0,1,.61-.26c.15,0,.49-.82.49-1.19,0-.2,0-.21-.59-.56a4.72,4.72,0,0,1-.71-.53A3.29,3.29,0,0,1,45.24,19l-.07-.28a2.67,2.67,0,0,1,0-1.05,5.41,5.41,0,0,1,.53-1.25c.27-.49.3-.67.12-.74a.61.61,0,0,0-.36,0,9.26,9.26,0,0,1-1.65.2A5.46,5.46,0,0,0,43,16l-.48.27-.77.43a1.11,1.11,0,0,0-.59.89.72.72,0,0,1-.11.3s0,0,0,.1a.26.26,0,0,1,0,.14,14.4,14.4,0,0,0-.84,2.69,4.2,4.2,0,0,0,0,1.44,2.18,2.18,0,0,0,2.43,1.65,1.94,1.94,0,0,0,.79-.11Zm9.1,3.65c0-.21.23-.34.28-.17a.2.2,0,0,1-.18.26C52.54,27.5,52.52,27.48,52.52,27.41Zm1.14-.19s0-.06.05-.05.09.12,0,.12a.07.07,0,0,1-.07-.07Zm6.59-8.31s0-.2-.08-.36c-.07-.36-.1-.41-.48-.7a1.45,1.45,0,0,1-.46-.5.78.78,0,0,0-.36-.38c-.27-.15-.32-.26-.18-.41s.14-.11.39-.11.3,0,.45.18.79,1.12,1,1.49a.57.57,0,0,1,.1.42.88.88,0,0,1-.09.33c-.09.13-.27.15-.31,0Z"/><path id="path3047" d="M4.32,55.15a3,3,0,0,1-.12-1.24,1.2,1.2,0,0,0-.07-.65,1.77,1.77,0,0,1-.05-1,.73.73,0,0,0,0-.45A2.86,2.86,0,0,1,4,50.6c.05-.47,0-.54,0-.71A1.53,1.53,0,0,1,4,49a1.54,1.54,0,0,0,0-.75,2.34,2.34,0,0,1,0-1,1.37,1.37,0,0,0,0-.68,1.68,1.68,0,0,1,.06-1A.94.94,0,0,0,4.21,45a2.72,2.72,0,0,1,.12-1.2A1.7,1.7,0,0,0,4.4,43a1.19,1.19,0,0,1,.11-.78,1.52,1.52,0,0,0,.14-.82,1.93,1.93,0,0,1,.14-.88,2,2,0,0,0,.14-.86,1.4,1.4,0,0,1,.16-.81,1.94,1.94,0,0,0,.2-.81,2.09,2.09,0,0,1,.38-1.12c.11-.18.12-.24.11-.6a.93.93,0,0,1,.11-.61,2.11,2.11,0,0,0,.33-1,1.68,1.68,0,0,1,.36-1c.19-.27.21-.33.21-.55A1.23,1.23,0,0,1,7,32.41a1.71,1.71,0,0,0,.35-.88,1.59,1.59,0,0,1,.42-.91.67.67,0,0,0,.25-.53,1.46,1.46,0,0,1,.41-1,1.08,1.08,0,0,0,.34-.68,1.51,1.51,0,0,1,.42-.91.79.79,0,0,0,.26-.5A2.27,2.27,0,0,1,10,26a2.14,2.14,0,0,0,.29-.46,1.52,1.52,0,0,1,.25-.65,3,3,0,0,1,.28-.35,1.71,1.71,0,0,0,.4-.73,1.58,1.58,0,0,1,.59-.79.74.74,0,0,0,.29-.47,2.73,2.73,0,0,1,.71-1.06,1.32,1.32,0,0,0,.29-.44,1.44,1.44,0,0,1,.52-.77,1.92,1.92,0,0,0,.52-.68,1.8,1.8,0,0,1,.67-.82c.24-.16.24-.16.36-.48s.16-.31.57-.7a2.18,2.18,0,0,0,.59-.69,1.61,1.61,0,0,1,.62-.66,1.9,1.9,0,0,0,.59-.68,1.44,1.44,0,0,1,.68-.63.69.69,0,0,0,.38-.4,1.76,1.76,0,0,1,.85-.83c.35-.19.39-.22.49-.44a1.2,1.2,0,0,1,.62-.59,1.56,1.56,0,0,0,.7-.54,1.81,1.81,0,0,1,.25-.32,1.9,1.9,0,0,1,.64-.36,1.44,1.44,0,0,0,.29-.31,2.07,2.07,0,0,1,1-.72A1,1,0,0,0,24,10a1.66,1.66,0,0,1,.8-.6,2.48,2.48,0,0,0,.73-.5,1.81,1.81,0,0,1,.91-.51,1.61,1.61,0,0,0,.4-.32,1.5,1.5,0,0,1,.79-.48,1.47,1.47,0,0,0,.73-.42,1.38,1.38,0,0,1,.77-.46,1.63,1.63,0,0,0,.77-.42A1.14,1.14,0,0,1,30.6,6a1.11,1.11,0,0,0,.56-.24,2.13,2.13,0,0,1,1.07-.51.89.89,0,0,0,.62-.28,1.88,1.88,0,0,1,1.1-.44.64.64,0,0,0,.5-.24c.24-.23.4-.29,1.07-.46a1.6,1.6,0,0,0,.62-.24,1.38,1.38,0,0,1,.77-.28,1.91,1.91,0,0,0,1-.46c.14-.09.24-.11.63-.14s.48,0,.71-.19a1.35,1.35,0,0,1,1-.29A1.2,1.2,0,0,0,41,2c.27-.17.29-.17.8-.2a1.46,1.46,0,0,0,.87-.2c.46-.24.53-.25.85-.17l.27.07.32-.14a2.12,2.12,0,0,1,1.2-.21.74.74,0,0,0,.59-.08,1.48,1.48,0,0,1,1-.14l.42,0,.37-.15a1,1,0,0,1,.89-.09.77.77,0,0,0,.32,0c1-.23,1.22-.24,1.53-.13s.22.07.53,0a1.75,1.75,0,0,1,1,0,1.2,1.2,0,0,0,.79,0l.31-.1.38.08a1.91,1.91,0,0,0,1,0l.35-.07.39.12a1.64,1.64,0,0,0,.59.11l.61,0a1.57,1.57,0,0,1,.74.12l.32.13.31-.07A1.77,1.77,0,0,1,59,1a.94.94,0,0,0,.63.06,1.16,1.16,0,0,1,.88.13,1.19,1.19,0,0,0,.75.14,2,2,0,0,1,1.12.27.62.62,0,0,0,.48,0A1.59,1.59,0,0,1,64,1.88c.36.19.37.19.62.15a1.37,1.37,0,0,1,.94.19,2.21,2.21,0,0,0,.8.22,1.42,1.42,0,0,1,.89.29,1,1,0,0,0,.57.19,1.79,1.79,0,0,1,1,.37,1.21,1.21,0,0,0,.8.27,1.11,1.11,0,0,1,.72.23,2,2,0,0,0,.91.34,1.4,1.4,0,0,1,.8.4.8.8,0,0,0,.5.23,2.17,2.17,0,0,1,1.25.61.6.6,0,0,0,.37.18,1.46,1.46,0,0,1,.91.39,1.9,1.9,0,0,0,1,.46,1.44,1.44,0,0,1,.63.35,1.68,1.68,0,0,0,.65.37,2.33,2.33,0,0,1,1,.59A.8.8,0,0,0,78.8,8a1.38,1.38,0,0,1,.78.53.88.88,0,0,0,.39.31,2.72,2.72,0,0,1,1.13.7,1.46,1.46,0,0,0,.44.35,2.07,2.07,0,0,1,.63.29,3,3,0,0,0,.89.76,2.31,2.31,0,0,1,.82.73.89.89,0,0,0,.41.3,2,2,0,0,1,.89.71,1.36,1.36,0,0,0,.56.47,1.18,1.18,0,0,1,.66.58,1.66,1.66,0,0,0,.53.52,2.44,2.44,0,0,1,.82.82,1,1,0,0,0,.42.42,1.46,1.46,0,0,1,.65.68,2.27,2.27,0,0,0,.55.65,3.24,3.24,0,0,1,.63.75,1,1,0,0,0,.42.47,1.29,1.29,0,0,1,.63.69,2.22,2.22,0,0,0,.5.67,2.32,2.32,0,0,1,.65.93.72.72,0,0,0,.28.38,1.59,1.59,0,0,1,.61.78,2,2,0,0,0,.6.84,1.19,1.19,0,0,1,.37.63,1.15,1.15,0,0,0,.42.68,1.33,1.33,0,0,1,.45.68c.2.54.25.63.48.84a1.52,1.52,0,0,1,.46.84c.08.3.13.38.5.77a1.41,1.41,0,0,1,.29.72,1.09,1.09,0,0,0,.34.67,1.43,1.43,0,0,1,.43.86,1.62,1.62,0,0,0,.33.69,1.46,1.46,0,0,1,.34.84,1.14,1.14,0,0,0,.28.72,1.4,1.4,0,0,1,.37.89,1.09,1.09,0,0,0,.28.68,1.27,1.27,0,0,1,.3.78c.08.6.08.61.23.78a1.19,1.19,0,0,1,.31.86,1.12,1.12,0,0,0,.16.64,1.72,1.72,0,0,1,.34,1,1.72,1.72,0,0,0,.22.81,1.36,1.36,0,0,1,.19.81,1.39,1.39,0,0,0,.18.81c.15.27.15.3.18.87s0,.6.19.9l.16.31,0,.48c0,.46,0,.49.09.74s.12.3.13.92a2.66,2.66,0,0,0,.08.85,1.55,1.55,0,0,1,.11.94,1,1,0,0,0,0,.62,3,3,0,0,1,.08,1,4.82,4.82,0,0,0,.08,1.11,1,1,0,0,1,0,.68,3.81,3.81,0,0,1-.16.51.74.74,0,0,0-.05.48,7.3,7.3,0,0,1,0,1.21,16.8,16.8,0,0,0,.06,2,1.76,1.76,0,0,1,0,.83,3.23,3.23,0,0,0-.09.89m-2.08.81a3.07,3.07,0,0,0,.08-.86,2,2,0,0,1,.08-.75,2.53,2.53,0,0,0,.09-.9,4.65,4.65,0,0,1,0-.81,2.73,2.73,0,0,0,0-.68,7.25,7.25,0,0,1,0-.88,3.79,3.79,0,0,0,0-.88,2.61,2.61,0,0,1,0-.82,1.7,1.7,0,0,0,0-.73,1.83,1.83,0,0,1,0-.75,2.11,2.11,0,0,0,0-.87,2.75,2.75,0,0,1-.07-.71,18.78,18.78,0,0,0-.29-2.59,4.09,4.09,0,0,1-.08-.73,1.58,1.58,0,0,0-.1-.63,3.73,3.73,0,0,1-.16-.67A5.81,5.81,0,0,0,99,40a4.23,4.23,0,0,1-.15-.75,2.12,2.12,0,0,0-.18-.74,2.77,2.77,0,0,1-.2-.76,2.91,2.91,0,0,0-.17-.71,2.14,2.14,0,0,1-.27-.88,1.57,1.57,0,0,0-.24-.71,2.12,2.12,0,0,1-.26-.74,2.05,2.05,0,0,0-.31-.9,3,3,0,0,1-.35-.92,2.57,2.57,0,0,0-.2-.52,2.5,2.5,0,0,1-.34-.83,1.93,1.93,0,0,0-.32-.69,2.41,2.41,0,0,1-.34-.71,3.51,3.51,0,0,0-.34-.75,5.07,5.07,0,0,1-.38-.83,2.44,2.44,0,0,0-.24-.55,3.21,3.21,0,0,1-.55-1,1.88,1.88,0,0,0-.36-.63,3.22,3.22,0,0,1-.37-.57,3.66,3.66,0,0,0-.56-1,4.34,4.34,0,0,1-.43-.68,3.55,3.55,0,0,0-.46-.7,3.34,3.34,0,0,1-.43-.65,2.66,2.66,0,0,0-.39-.59,2.52,2.52,0,0,1-.54-.73,4.07,4.07,0,0,0-.51-.67,5.83,5.83,0,0,1-.59-.76,2.55,2.55,0,0,0-.42-.53,2,2,0,0,1-.6-.72,1.52,1.52,0,0,0-.5-.56,1.67,1.67,0,0,1-.5-.55,1.28,1.28,0,0,0-.44-.48,4.25,4.25,0,0,1-.58-.54,8.52,8.52,0,0,0-.95-.95,2.34,2.34,0,0,1-.55-.68s-.1-.1-.23-.16a2.31,2.31,0,0,1-.87-.7,2.33,2.33,0,0,0-.65-.56,2.07,2.07,0,0,1-.73-.62A2,2,0,0,0,82,12.6a2.45,2.45,0,0,1-.76-.66,1.3,1.3,0,0,0-.32-.19A4.51,4.51,0,0,1,79.86,11a2,2,0,0,0-.54-.35,2.24,2.24,0,0,1-.78-.53,1.24,1.24,0,0,0-.29-.22,3.15,3.15,0,0,1-.85-.46A2.37,2.37,0,0,0,76.59,9a2.42,2.42,0,0,1-.86-.48,1.2,1.2,0,0,0-.48-.26,2,2,0,0,1-.81-.41,3.09,3.09,0,0,0-.76-.38A5.91,5.91,0,0,1,72.81,7a1.85,1.85,0,0,0-.68-.28,1.21,1.21,0,0,1-.71-.32,1.59,1.59,0,0,0-.65-.28,3.55,3.55,0,0,1-.65-.23,2.56,2.56,0,0,0-1-.4,3.28,3.28,0,0,1-.72-.24,7.77,7.77,0,0,0-1-.35,6.55,6.55,0,0,1-.84-.29,2,2,0,0,0-.69-.17,2.07,2.07,0,0,1-.72-.18A2.6,2.6,0,0,0,64.28,4a3.65,3.65,0,0,1-.7-.2,2.4,2.4,0,0,0-.87-.19,2,2,0,0,1-.7-.14,2.29,2.29,0,0,0-.85-.15,2.47,2.47,0,0,1-.87-.15,1.56,1.56,0,0,0-.77-.11,2.22,2.22,0,0,1-.83-.1,3.46,3.46,0,0,0-.87-.14A6,6,0,0,1,57,2.74a1.89,1.89,0,0,0-.68,0,1.69,1.69,0,0,1-.85-.06,2.06,2.06,0,0,0-.79,0,3.51,3.51,0,0,1-.93,0,1.74,1.74,0,0,0-.78,0,2.07,2.07,0,0,1-.86,0,1.93,1.93,0,0,0-.89,0,2.09,2.09,0,0,1-.82,0,1.23,1.23,0,0,0-.54,0,6.9,6.9,0,0,1-.87.09,9.28,9.28,0,0,0-1.11.13,2.23,2.23,0,0,1-.77.06,1,1,0,0,0-.52,0,3.36,3.36,0,0,1-1.1.24l-1,.15a3.75,3.75,0,0,1-.64.06,1,1,0,0,0-.53.1,2.51,2.51,0,0,1-1,.27,2.74,2.74,0,0,0-.57.09,4.38,4.38,0,0,1-1.1.3,1.66,1.66,0,0,0-.57.15,2.77,2.77,0,0,1-1,.29,2.2,2.2,0,0,0-.72.23,2.25,2.25,0,0,1-.75.24,1.61,1.61,0,0,0-.71.25,2.24,2.24,0,0,1-.87.35,5.21,5.21,0,0,0-.83.32,4.28,4.28,0,0,1-.79.3,1.53,1.53,0,0,0-.54.22A4.1,4.1,0,0,1,32.86,7a2.54,2.54,0,0,0-.68.35,1.69,1.69,0,0,1-.61.3,1.93,1.93,0,0,0-.85.42,2.87,2.87,0,0,1-.9.44,2.36,2.36,0,0,0-.49.32,1.79,1.79,0,0,1-.64.37,2.16,2.16,0,0,0-.69.39,5.58,5.58,0,0,1-.8.49,2.2,2.2,0,0,0-.67.46,1.67,1.67,0,0,1-.6.41c-.32.13-.36.16-.84.62a2.4,2.4,0,0,1-.61.42,1.68,1.68,0,0,0-.57.41,4.47,4.47,0,0,1-.62.52,7.89,7.89,0,0,0-1,.86,2.77,2.77,0,0,1-.4.29,2.78,2.78,0,0,0-.51.45,6.08,6.08,0,0,1-.7.64,2.55,2.55,0,0,0-.55.52,2.35,2.35,0,0,1-.7.67,1.57,1.57,0,0,0-.39.41,5.12,5.12,0,0,1-.56.64,4.66,4.66,0,0,0-.79.85,2.86,2.86,0,0,1-.46.48,1.57,1.57,0,0,0-.39.45,3.91,3.91,0,0,1-.4.55,8.67,8.67,0,0,0-.83,1.06,6.57,6.57,0,0,1-.47.62,3.56,3.56,0,0,0-.41.6,5.47,5.47,0,0,1-.51.73,2.91,2.91,0,0,0-.39.58,1.93,1.93,0,0,1-.55.79.65.65,0,0,0-.26.37,3.53,3.53,0,0,1-.61,1.11,2.67,2.67,0,0,0-.38.65,3,3,0,0,1-.37.66,2,2,0,0,0-.26.41,3.14,3.14,0,0,1-.52,1.06,2.17,2.17,0,0,0-.37.77,2,2,0,0,1-.33.72,1.45,1.45,0,0,0-.35.69,2.14,2.14,0,0,1-.33.82,2.54,2.54,0,0,0-.24.57,7.89,7.89,0,0,1-.38.94,4.46,4.46,0,0,0-.28.68,3.53,3.53,0,0,1-.34.95A1.66,1.66,0,0,0,8,35a3.15,3.15,0,0,1-.31,1,2,2,0,0,0-.13.6,2.08,2.08,0,0,1-.19.76,3.28,3.28,0,0,0-.24.92,6.32,6.32,0,0,1-.22.92,2.71,2.71,0,0,0-.15.77,1.5,1.5,0,0,1-.18.73,1.17,1.17,0,0,0-.15.74,1.92,1.92,0,0,1-.11.78,3.07,3.07,0,0,0-.15.87,6.46,6.46,0,0,1-.13.91,3.41,3.41,0,0,0-.09.89,1.81,1.81,0,0,1-.07.69,1.71,1.71,0,0,0-.06.7,5.81,5.81,0,0,1-.06,1,2.73,2.73,0,0,0,0,.82,5.79,5.79,0,0,1,0,.81,5.21,5.21,0,0,0,0,.82,2.92,2.92,0,0,1,0,.81,1.64,1.64,0,0,0,0,.73,2.5,2.5,0,0,1,0,.77,2.22,2.22,0,0,0,0,.72,3.91,3.91,0,0,1,.07.77,6.7,6.7,0,0,0,.07.9c0,.23.1.69.13,1m84.13.06-76.3-.06a1,1,0,0,1,.14-.74.91.91,0,0,1,1.07-.31m75.69.88-.16,0a.84.84,0,0,1-.48-.44,1.29,1.29,0,0,1,0-.87.89.89,0,0,1,1.24-.35,1,1,0,0,1,.19,1.37,1,1,0,0,1-.78.32Zm4.64-.8s-.29-2.19-.29-2.32a.71.71,0,0,0-.3-.13c-.27-.08-1.47-.35-1.93-.43-.12,0-.2-.06-.2-.09s.11-.13,1.16-.64a8.44,8.44,0,0,0,.9-.48l.13-.11-.12-1.08c-.13-1.18-.14-1.24-.08-1.24a12.77,12.77,0,0,1,1.58,1.72c0,.08.29,0,1.78-.6.54-.21.65-.23.6-.12s-.27.5-.57,1A7.4,7.4,0,0,0,97.6,51c0,.11,0,.15.43.58a9.24,9.24,0,0,1,1.05,1.3c0,.06-.18,0-.74-.1a12.91,12.91,0,0,0-1.48-.31c-.09,0-.14,0-.24.21-.33.53-.42.68-.42.69s-.66,1.11-.68,1.11l0,0ZM14.2,54a.92.92,0,0,1-.52-.86.89.89,0,0,1,.5-.79,1.06,1.06,0,0,1,.77,0,1,1,0,0,1,.47,1A1,1,0,0,1,15,54a1,1,0,0,1-.81,0Zm-3.42-.19-.2-.26L10,52.79a4.46,4.46,0,0,0-.54-.66s-.53.19-1.11.41a4.58,4.58,0,0,1-1.1.37s.09-.25.38-.68l.42-.65.2-.31c.29-.44.29-.44,0-.86L7.4,49.33l-.19-.25L7,48.85h.11a2.69,2.69,0,0,1,.45.09,14.77,14.77,0,0,0,1.66.43c.14,0,.48-.4,1-1.18a7.84,7.84,0,0,1,.56-.78,3.76,3.76,0,0,1,.08,1c0,.57,0,1.12.06,1.22l0,.18.47.12a7.17,7.17,0,0,1,1.88.67,4.06,4.06,0,0,1-.69.29c-1.42.52-1.41.51-1.55.67s-.13.16-.12.55c0,.22,0,.72,0,1.11,0,.77,0,.83-.22.57ZM91,53.19a.88.88,0,0,1-.44-1.48.79.79,0,0,1,1.27,0l.17.18v.39c0,.37,0,.4-.14.56a.84.84,0,0,1-.87.33ZM14.09,52.07a.79.79,0,0,1-.43-.45.9.9,0,0,1,.12-1,.88.88,0,0,1,1.38,0,1,1,0,0,1,.07,1,.73.73,0,0,1-.35.39,1.12,1.12,0,0,1-.79,0Zm76.76-.92a1,1,0,0,1-.48-1,.93.93,0,0,1,.85-.73.91.91,0,0,1,.9.86.93.93,0,0,1-1.27.87ZM14.14,50a.79.79,0,0,1-.54-.66c-.07-.31-.07-.32,0-.54a.86.86,0,0,1,1.54-.16A1,1,0,0,1,14.81,50a1.06,1.06,0,0,1-.68,0Zm76.68-.9a.92.92,0,0,1,.06-1.63.87.87,0,0,1,1,.26,1,1,0,0,1,.18.92A.94.94,0,0,1,90.82,49.11ZM14.07,48a.82.82,0,0,1-.46-.65.84.84,0,0,1,.15-.75.9.9,0,0,1,1.33-.08,1.08,1.08,0,0,1,.17,1,1.07,1.07,0,0,1-.48.47,1.26,1.26,0,0,1-.71,0ZM90.8,47.2a.88.88,0,0,1-.5-1.11c.11-.37.58-.73.88-.67a1.15,1.15,0,0,1,.75.55,1.17,1.17,0,0,1,0,.87.9.9,0,0,1-1.11.36ZM14.55,46a.83.83,0,0,1-.68-.94.8.8,0,0,1,.76-.84.82.82,0,0,1,.94.72,1,1,0,0,1-.15.75A.92.92,0,0,1,14.55,46Zm76.23-.79A1,1,0,0,1,90,44a.88.88,0,0,1,1.15-.6,1.18,1.18,0,0,1,.56.65.89.89,0,0,1-1,1.13ZM14.59,43.93a.86.86,0,0,1-.45-.85.76.76,0,0,1,.47-.77.88.88,0,0,1,1.24,1,.85.85,0,0,1-1.26.61Zm75.77-.68a1,1,0,0,1-.67-.89,1.1,1.1,0,0,1,.42-.78.87.87,0,0,1,1.21.32.66.66,0,0,1,.13.49c0,.22,0,.31-.08.38a.29.29,0,0,0-.08.13c0,.07-.35.3-.55.35a.55.55,0,0,1-.4,0ZM15.21,42a1.11,1.11,0,0,1-.56-.37,1.1,1.1,0,0,1,0-.91.84.84,0,0,1,1.56,0,1,1,0,0,1-.25,1.11,1.25,1.25,0,0,1-.56.19l-.15,0Zm74.59-.73a.85.85,0,0,1-.5-.86.83.83,0,0,1,.45-.84.9.9,0,0,1,1,.2.92.92,0,0,1-.22,1.45,1,1,0,0,1-.77,0ZM15.56,40a1.2,1.2,0,0,1-.44-.42,1.11,1.11,0,0,1-.06-.4,1,1,0,0,1,.37-.79.52.52,0,0,1,.44-.13.87.87,0,0,1,.91.79.61.61,0,0,1-.06.51.78.78,0,0,1-.75.5A.75.75,0,0,1,15.56,40Zm73.75-.75a1,1,0,0,1-.44-1.39.88.88,0,0,1,.79-.4,1,1,0,0,1,.67.4c.11.15.12.2.12.5a.68.68,0,0,1-.12.51A.92.92,0,0,1,89.31,39.3Zm-73.1-1.18a.84.84,0,0,1-.57-.87.78.78,0,0,1,.34-.74.52.52,0,0,1,.44-.13.9.9,0,0,1,.72.28A.92.92,0,0,1,17,38,1,1,0,0,1,16.22,38.12Zm72.34-.73c-.25-.13-.34-.25-.41-.61a.57.57,0,0,1,0-.5,1,1,0,0,1,.59-.54.92.92,0,0,1,1.09.9.85.85,0,0,1-1.31.76ZM16.88,36.2a1.16,1.16,0,0,1-.48-.48,1,1,0,0,1,0-.84.86.86,0,0,1,1.33-.16.91.91,0,0,1,.21,1,1.3,1.3,0,0,1-.44.48,1,1,0,0,1-.66,0Zm71-.66a.89.89,0,0,1,.29-1.73.84.84,0,0,1,.85.86.83.83,0,0,1-.63.89.68.68,0,0,1-.51,0ZM17.63,34.28A1.17,1.17,0,0,1,17.3,34a.58.58,0,0,1-.14-.48.74.74,0,0,1,.13-.5.8.8,0,0,1,.6-.41.85.85,0,0,1,.88.55,1.17,1.17,0,0,1-.06.87A.81.81,0,0,1,17.63,34.28ZM87,33.7a1.44,1.44,0,0,1-.28-.27c-.11-.15-.12-.19-.12-.52s0-.37.14-.53a.77.77,0,0,1,.66-.36.9.9,0,0,1,.92,1,.85.85,0,0,1-.35.62.61.61,0,0,1-.48.15c-.27,0-.34,0-.47-.1ZM18.61,32.63A1,1,0,0,1,18.39,31a.9.9,0,0,1,1.09.13,1,1,0,0,1,.26.66.86.86,0,0,1-.68.86.68.68,0,0,1-.44,0ZM86.18,32a1,1,0,0,1-.55-.56,1,1,0,0,1,0-.72.85.85,0,0,1,1.19-.38.77.77,0,0,1,.46.63.85.85,0,0,1-.41.93A1.37,1.37,0,0,1,86.18,32Zm2.36-1.39c-.23-.42-.43-.78-.43-.8s0-.07.1-.09l.36-.2,2.69-1.51,1.08-.61.9-.5s.18.29.38.64l.45.78.08.14-.17.1-.41.23-.35.2-.39.23-2.75,1.54c-.59.33-1.07.59-1.1.59s-.2-.34-.44-.76Zm-69.11.14a.78.78,0,0,1-.47-.71.84.84,0,0,1,.22-.73.86.86,0,0,1,1.38.19,1.06,1.06,0,0,1-.15,1.14A.91.91,0,0,1,19.43,30.78Zm-4.31-.42a3.58,3.58,0,0,1-1.7-1,2.89,2.89,0,0,1-.75-1.21,3.41,3.41,0,0,1,0-1.62,3.66,3.66,0,0,1,1.47-2,2.67,2.67,0,0,1,2-.25c.49.15.49.15.24.54l-.67,1.06c-.07.11-.07.12-.26.05a1,1,0,0,0-1.28,1,1.57,1.57,0,0,0,.88,1.29,1.87,1.87,0,0,0,1.62.32,1.26,1.26,0,0,0,.67-1,1.13,1.13,0,0,0-.24-.59L17,26.78l.42-.67c.23-.37.44-.71.45-.75s.12-.09.4.2a2.65,2.65,0,0,1,0,3.53,2.9,2.9,0,0,1-2.48,1.35,3.06,3.06,0,0,1-.7-.08Zm70.06-.09a.85.85,0,0,1-.6-1,.79.79,0,0,1,.82-.82.85.85,0,0,1,.89.92.75.75,0,0,1-.11.48.9.9,0,0,1-1,.39ZM20.6,29.18a.84.84,0,0,1-.56-.85.88.88,0,0,1,1.22-.88,1,1,0,0,1,.09,1.61A1.07,1.07,0,0,1,20.6,29.18Zm66.53-.84a7.62,7.62,0,0,1-.47-.78s.06-.1.13-.15l.68-.44,1.35-.88,1.14-.74,1-.62c.34-.22.64-.41.66-.41a2.93,2.93,0,0,1,.3.43l.49.75.21.33-.09.07-.14.09-.7.45-1.18.77-1.28.84c-.86.57-1.49,1-1.55,1a4.88,4.88,0,0,1-.5-.7ZM84,28.59a.78.78,0,0,1-.51-.47,1.05,1.05,0,0,1,0-.88A.88.88,0,0,1,84.75,27a1,1,0,0,1,0,1.54.93.93,0,0,1-.72.08ZM21.8,27.42a1,1,0,0,1-.31-.23.88.88,0,0,1,.24-1.42.84.84,0,0,1,.75,0,.82.82,0,0,1,.49.93.77.77,0,0,1-.43.68,1.14,1.14,0,0,1-.73,0ZM86,26.57l-.6-.72-.17-.21.23-.37a1.35,1.35,0,0,0,.2-.43s-1-1.26-1.17-1.44a1.2,1.2,0,0,0-.41.12,3.12,3.12,0,0,1-.44.15,12.06,12.06,0,0,1-1.12-1.28c-.12-.15-.1-.17.21-.27l.83-.28L88,20.32c.34-.11.4-.11.5,0l.52.64c.26.31.48.59.49.62A10.39,10.39,0,0,1,88.77,23l-.23.39c-.15.28-.91,1.6-1.2,2.08a3.13,3.13,0,0,0-.24.45,0,0,0,0,1,0,0s-.07.06-.1.14-.18.33-.31.55l-.24.41L86,26.57Zm.51-3c.06-.1.26-.42.46-.71l.39-.59c0-.06,0,0-.45.16l-.69.28a2.34,2.34,0,0,0-.49.22,6.76,6.76,0,0,0,.66.82A.62.62,0,0,0,86.49,23.53Zm-3.85,3.4a.63.63,0,0,1-.32-.34.8.8,0,0,1-.11-.53.73.73,0,0,1,.15-.48.93.93,0,0,1,1-.35,1.07,1.07,0,0,1,.53.56.81.81,0,0,1-.14.89A.89.89,0,0,1,82.65,26.94Zm-59.59-1a.87.87,0,0,1-.61-.88.78.78,0,0,1,.21-.62.85.85,0,0,1,1.34.09.77.77,0,0,1,.15.47.79.79,0,0,1-.25.74A.81.81,0,0,1,23.06,25.89Zm58.43-.51a.87.87,0,0,1-.5-.87.85.85,0,0,1,1.43-.68,1.06,1.06,0,0,1,0,1.42.93.93,0,0,1-1,.13Zm-62.26-.51a3.7,3.7,0,0,1-2.63-2.3,2.93,2.93,0,0,1,0-1.52,4.08,4.08,0,0,1,1.68-2.19,2.45,2.45,0,0,1,1.45-.41,3,3,0,0,1,2,.76,3.17,3.17,0,0,1,.95,1.16,2.65,2.65,0,0,1,.23,1.7,3.72,3.72,0,0,1-2.58,2.75A3.65,3.65,0,0,1,19.23,24.86Zm1.31-1.68a1.45,1.45,0,0,0,.75-.77,1.28,1.28,0,0,0-.11-1A2.94,2.94,0,0,0,20,20.27a1.14,1.14,0,0,0-.69-.17,1,1,0,0,0-.55.1,1.35,1.35,0,0,0-.59.62.82.82,0,0,0-.1.56,1.29,1.29,0,0,0,.35.87,3.94,3.94,0,0,0,.92.78A1.53,1.53,0,0,0,20.54,23.18Zm3.85,1.17a.92.92,0,0,1-.63-.93.86.86,0,0,1,.85-.84,1.07,1.07,0,0,1,.7.39.92.92,0,0,1,0,1.12.8.8,0,0,1-.88.26Zm55.72-.44a.86.86,0,0,1-.52-.85.79.79,0,0,1,.84-.87.79.79,0,0,1,.59.22,1.09,1.09,0,0,1,.23,1.05.87.87,0,0,1-.45.48,1.12,1.12,0,0,1-.69,0Zm-54.35-1a1,1,0,0,1-.61-.82,1,1,0,0,1,.08-.33.82.82,0,0,1,1.42-.27.89.89,0,0,1,.16,1A.81.81,0,0,1,25.76,22.91Zm53-.38a1,1,0,0,1-.64-1,.85.85,0,0,1,.35-.59c.16-.13.19-.14.51-.14s.35,0,.51.13a1,1,0,0,1,.36.75.83.83,0,0,1-.59.86.72.72,0,0,1-.5,0Zm-51.6-1c-.29-.09-.41-.25-.49-.63A.74.74,0,0,1,27,20a.7.7,0,0,1,1-.1,1,1,0,0,1,0,1.52,1.24,1.24,0,0,1-.79,0Zm54.06-.36a8.87,8.87,0,0,1-.9-.83,3.07,3.07,0,0,1,.18-.31l.22-.36.72-1.25c.07-.12.24-.39.6-.94a4.14,4.14,0,0,0,.29-.47,1,1,0,0,0-.21.17,19.42,19.42,0,0,1-1.65,1.34l-1,.8a.31.31,0,0,1-.14.08,9.46,9.46,0,0,1-1.14-1l-.25-.24.38-.77,1.34-2.73,1-2a.53.53,0,0,1,.14.11l.62.54a4.7,4.7,0,0,1,.51.48,1.93,1.93,0,0,1-.22.55l-.58,1.14c-.18.36-.49.91-.68,1.22a5.43,5.43,0,0,0-.33.58,5.45,5.45,0,0,0,.54-.4c.47-.37,1.06-.8,2.25-1.66l.37-.27.31.27.59.54.28.27-.33.6-.52.94a14.18,14.18,0,0,1-.88,1.4,1.72,1.72,0,0,0-.24.39,2.13,2.13,0,0,0,.46-.34c.09-.1,2.59-1.81,2.73-1.86A9,9,0,0,1,87,18.3a3.59,3.59,0,0,1-.59.4l-2.54,1.55-.55.34-1,.58-.57.33a2,2,0,0,1-.49-.36Zm-4,0a1.12,1.12,0,0,1-.49-.43,1.08,1.08,0,0,1,0-.86.85.85,0,0,1,.88-.47.9.9,0,0,1,.66,1.33.74.74,0,0,1-.7.44,1.4,1.4,0,0,1-.33,0Zm-48.53-1a.69.69,0,0,1-.36-.36.85.85,0,0,1,0-.89.81.81,0,0,1,.73-.44.56.56,0,0,1,.45.15.92.92,0,0,1-.07,1.58.82.82,0,0,1-.77,0ZM24.3,20a1.74,1.74,0,0,1-.86-.48c-.2-.2-1-1.2-1.82-2.17-.28-.35-.32-.4-.61-.73a1.57,1.57,0,0,1-.23-.31,1.47,1.47,0,0,1,.3-.29l.67-.55a4,4,0,0,1,.4-.31s1,1.15,1.83,2.19.8,1,1.14,1a.75.75,0,0,0,.44-.08,1.18,1.18,0,0,0,.68-.91c0-.24-.1-.41-.57-1l-.93-1.13L24,14.3a3.39,3.39,0,0,1-.3-.39A14.4,14.4,0,0,1,25,12.78a8.57,8.57,0,0,1,.6.69l1.13,1.36c1,1.19,1.12,1.39,1.21,1.9.16.93-.44,1.93-1.65,2.74A2.45,2.45,0,0,1,24.3,20Zm51.19-.11a1,1,0,0,1-.24-1.4.86.86,0,0,1,1.53.61A.92.92,0,0,1,75.5,19.87ZM30.36,19a1,1,0,0,1,.13-1.68c.49-.22,1.11.28,1.12.91a.87.87,0,0,1-.34.72A.88.88,0,0,1,30.36,19Zm43.76-.21A.9.9,0,0,1,74.2,17a.78.78,0,0,1,.75.4.64.64,0,0,1,.15.5.83.83,0,0,1-.29.71.69.69,0,0,1-.27.15l-.2,0a.77.77,0,0,1-.22,0Zm-42-.9a.8.8,0,0,1-.52-.48.53.53,0,0,1-.08-.49,1.12,1.12,0,0,1,.48-.69.85.85,0,0,1,.84.11.9.9,0,0,1-.2,1.57.68.68,0,0,1-.51,0Zm44.43-.63c-.4-.25-.76-.49-.78-.52s0-.14,0-.47a1.31,1.31,0,0,0,.06-.45l-.82-.52a3.25,3.25,0,0,0-.83-.45l-.35.28-.3.25-.16-.1A10.56,10.56,0,0,1,72,14.39a7.21,7.21,0,0,1,.81-.66l1.09-.82.72-.55.5-.38c.2-.16,1.84-1.39,1.86-1.39l.38.23a6.24,6.24,0,0,1,1.17.8s-.15.78-.79,3.85c-.38,1.82-.47,2.26-.49,2.27l-.74-.45ZM76.35,14c.08-.3.18-.67.23-.82a1.21,1.21,0,0,0,.07-.32s-.09,0-.19.12l-.67.57c-.3.25-.48.43-.45.45s.85.55.87.54.07-.25.15-.55Zm-4,3.69a.88.88,0,0,1-.7-.92.86.86,0,0,1,1.49-.62,1.11,1.11,0,0,1,.16,1.07.92.92,0,0,1-.6.45C72.48,17.73,72.47,17.73,72.37,17.69Zm-38.61-.81a.91.91,0,0,1-.42-.43,1.18,1.18,0,0,1,0-.86,1,1,0,0,1,1-.44.88.88,0,0,1,.55.9.8.8,0,0,1-.32.72.6.6,0,0,1-.46.15,1.32,1.32,0,0,1-.4,0Zm-4.94-1.27-2-3.3a5.1,5.1,0,0,1-.31-.58,2.45,2.45,0,0,1,.5-.33l.71-.42c.3-.19.24-.2,1.06.26l2.05,1.15.28.17a.17.17,0,0,0,.1,0s0,0,0-.13a.74.74,0,0,1-.09-.15s-.16-.28-.35-.6l-.35-.59-.29-.49c-.16-.26-.32-.55-.37-.63s-.1-.19.46-.52l.63-.37A1.32,1.32,0,0,1,31.18,9c.06,0,.12.08.71,1.09l.55.93a1.22,1.22,0,0,1,.1.18s.12.22.28.47c.26.42,1,1.66,1.28,2.15l.12.21-.1.07-.76.46-.66.39-.26-.14L30.95,14c-1.6-.87-1.44-.79-1.4-.7s.33.58.7,1.2.7,1.18.75,1.27.12.13-.31.38l-1,.59-.16.1-.71-1.19Zm41.58.91a.65.65,0,0,1-.31-.34.93.93,0,0,1,.24-1.2.84.84,0,0,1,.82-.09,1,1,0,0,1,.38,1.46,1,1,0,0,1-1.13.17ZM35.76,16a.9.9,0,0,1-.55-1.26,1.2,1.2,0,0,1,.63-.54.94.94,0,0,1,1,.77A.86.86,0,0,1,35.76,16Zm33-.25a1.21,1.21,0,0,1-.51-.52,1.48,1.48,0,0,1,0-.7.94.94,0,0,1,.92-.53.93.93,0,0,1,.38,1.66.78.78,0,0,1-.8.08Zm-31.15-.62a.8.8,0,0,1-.5-.41.86.86,0,0,1,.17-1.16.77.77,0,0,1,1.13,0,1,1,0,0,1,.22,1,.88.88,0,0,1-1,.54ZM67,15a.9.9,0,0,1-.62-.64,1,1,0,0,1,.83-1.17.9.9,0,0,1,.89.94A.87.87,0,0,1,67,15Zm-27.56-.59a.79.79,0,0,1-.58-.73.86.86,0,0,1,1.22-1,1,1,0,0,1,.31,1.45A1,1,0,0,1,39.39,14.38Zm25.55-.16a1,1,0,0,1-.43-.41,1.45,1.45,0,0,1,0-.94.86.86,0,0,1,1.51,0,1.27,1.27,0,0,1,.09.8,1,1,0,0,1-.47.5,1.31,1.31,0,0,1-.72,0Zm6.51-.07-1.26-.54-.27-.13.07-.16.15-.37c0-.11.1-.24.13-.28s.29-.64.47-1.08c0-.1.05-.18,0-.2s-.38-.19-.8-.37c-.62-.27-.77-.32-.8-.27s-.22.48-.44,1a7.44,7.44,0,0,1-.47,1,4.57,4.57,0,0,1-1.34-.52L66.6,12l.15-.34.53-1.21L67.95,9l.45-1,.35-.82A1.31,1.31,0,0,1,69,6.66a5.76,5.76,0,0,1,.64.25l.79.34c.14.06.2.1.19.15s-.12.29-.24.57a6.31,6.31,0,0,0-.51,1.25s1.49.67,1.56.67a3.34,3.34,0,0,0,.46-.9c.22-.5.4-.91.41-.91a12.35,12.35,0,0,1,1.62.74s-.2.5-.44,1l-.44,1s-.2.46-.35.79l-.92,2.14c-.15.35-.18.39-.3.34Zm-30.23-.43a.92.92,0,0,1-.49-.74.89.89,0,0,1,.66-1,.82.82,0,0,1,.75.21.93.93,0,0,1-.29,1.56.91.91,0,0,1-.64,0Zm21.95-.06a.88.88,0,0,1-.6-1.32.77.77,0,0,1,1.33-.21.92.92,0,0,1,.13,1.2.82.82,0,0,1-.86.33Zm-20-.46a1,1,0,0,1-.51-1,1,1,0,0,1,.55-.73.9.9,0,0,1,1.14,1,1.11,1.11,0,0,1-.46.67,1,1,0,0,1-.72,0Zm-7.07-.3-.43-1c-.58-1.4-1.13-2.72-1.15-2.74a4.79,4.79,0,0,0-1,.38c-.52.21-.65.24-.65.13s-.28-.73-.44-1.08l-.08-.19.16-.07.73-.3,2-.83,1.63-.66a.94.94,0,0,1,.33-.09,2.28,2.28,0,0,1,.26.52l.27.66.07.16-.12,0-1.45.59A9.31,9.31,0,0,0,36.92,10a18,18,0,0,1,1,2.46l-.49.21-.59.24-.35.15-.22.09ZM61,13a.83.83,0,0,1-.47-.65.7.7,0,0,1,0-.49,1,1,0,0,1,.2-.35,1.11,1.11,0,0,1,.62-.24,1.09,1.09,0,0,1,.81.6,1.25,1.25,0,0,1,0,.73A.86.86,0,0,1,61,13Zm-15.94-.3a1,1,0,0,1,0-1.63,1.07,1.07,0,0,1,.75,0,1,1,0,0,1,.43.48,1.06,1.06,0,0,1-.18,1,.91.91,0,0,1-1,.11Zm14,0a.89.89,0,0,1-.5-.85.87.87,0,0,1,.77-.9.77.77,0,0,1,.74.34,1.26,1.26,0,0,1,.12.93A.85.85,0,0,1,59.1,12.72ZM47.16,12.4A1,1,0,0,1,46.78,11a1,1,0,0,1,.64-.32.94.94,0,0,1,.82.51,1.06,1.06,0,0,1-.16,1.12A1,1,0,0,1,47.16,12.4Zm10,0a.81.81,0,0,1-.46-.51.89.89,0,0,1,.77-1.2.81.81,0,0,1,.84.55.89.89,0,0,1-.08.86.91.91,0,0,1-1.06.31Zm-8.09-.26a1,1,0,0,1-.32-.29.72.72,0,0,1-.12-.5.7.7,0,0,1,.11-.49.75.75,0,0,1,.69-.37.83.83,0,0,1,.88.77,1,1,0,0,1-.17.71A.89.89,0,0,1,49.07,12.1Zm6.06,0a.92.92,0,0,1-.55-.91.84.84,0,0,1,1.61-.36A.88.88,0,0,1,55.13,12.15ZM51,12.07a1.1,1.1,0,0,1-.32-.29.66.66,0,0,1-.13-.5.69.69,0,0,1,.12-.5.87.87,0,0,1,1.48.06A1,1,0,0,1,52,12,.91.91,0,0,1,51,12.07Zm2.12,0a1,1,0,0,1-.44-.43,1.1,1.1,0,0,1,0-.87.85.85,0,0,1,1.34-.15.86.86,0,0,1,.17,1.08.71.71,0,0,1-.71.43,1.18,1.18,0,0,1-.38-.06ZM42.18,11s-.11-.43-.22-.89l-.22-.9A5.41,5.41,0,0,0,41,8.39L40,7.3l-1-1.09c-.19-.2-.27-.32-.24-.34l.36-.1,1.47-.35s.13.07.24.2l.35.45,1.1,1.38s.06,0,.13-.33c.21-1,.5-2.22.53-2.25s1.13-.3,1.84-.46c.12,0,.12,0,0,.25l-.17.57-.73,2.43c-.34,1.15-.33,1-.2,1.56a14.72,14.72,0,0,1,.33,1.46s-1.3.33-1.6.39c-.1,0-.15,0-.16,0Zm15.94-1c-.47-.08-.86-.15-.87-.17s.18-1.25.58-3.54l.27-1.56c.1-.59.13-.69.2-.69s.9.14,2.77.46l1.38.24c.87.13.88.14.85.26s-.24,1.35-.24,1.39a9.25,9.25,0,0,1-1.84-.27l-1.42-.24a2.32,2.32,0,0,0-.14.72c0,.1,0,.11.49.19l1.19.2a5.59,5.59,0,0,1,.73.15,8.36,8.36,0,0,1-.2,1.35,8.57,8.57,0,0,1-1.49-.23,9.3,9.3,0,0,0-1-.14,1.44,1.44,0,0,0-.13.47A12.38,12.38,0,0,1,59,10.16a6.8,6.8,0,0,1-.88-.12ZM53,9.87a3,3,0,0,1-2.75-3.1A3,3,0,0,1,53.7,3.66a2.94,2.94,0,0,1,2.06.86,2.75,2.75,0,0,1,.75,1.29,4.77,4.77,0,0,1,0,1.9,2.82,2.82,0,0,1-2.08,2,4.8,4.8,0,0,1-1.4.12Zm1-1.46a1.7,1.7,0,0,0,.77-1.63,2.71,2.71,0,0,0-.22-1.07A1.28,1.28,0,0,0,53,5.11c-.59.2-.93.92-.87,1.86a1.53,1.53,0,0,0,.94,1.53A1.69,1.69,0,0,0,54,8.41Zm47,46.84c0-.05-.06-.06-.17,0m-95.23,0c0-.35-.09-.37-.3-.14m95.53-.8c.31-.29.52-.73.35-.77-.32-.06-.78.51-.7.88,0,.11,0,.11.12.07A1.59,1.59,0,0,0,100.86,54.26ZM5.21,54.1a.74.74,0,0,0,.25-.67c0-.11-.05-.15-.11-.15s-.41.37-.52.62-.12.43-.06.49S5,54.29,5.21,54.1Zm95.61-1.41a1.71,1.71,0,0,0,.52-.84c0-.09-.37,0-.56.22a.6.6,0,0,0-.21.59c.05.1.11.11.25,0ZM5.05,52.5a.74.74,0,0,0,.33-.64c0-.22,0-.26-.06-.28s-.71.74-.66,1,.12.11.38-.06ZM101,50.93a1.46,1.46,0,0,0,.43-.66c0-.09,0-.1-.15-.1a.83.83,0,0,0-.64.76c0,.27.1.27.36,0Zm-96.1-.07a1,1,0,0,0,.42-.49c.05-.16,0-.38-.06-.41s-.47.4-.57.67S4.58,51,4.87,50.85ZM101,49.31c.28-.29.48-.75.36-.82a1,1,0,0,0-.48.2.8.8,0,0,0-.23.43c0,.17,0,.39.11.39a.85.85,0,0,0,.25-.2ZM4.92,49.18a1,1,0,0,0,.4-.51c0-.18,0-.34-.11-.34s-.65.61-.65.89c0,.1,0,.11.1.09A1.33,1.33,0,0,0,4.92,49.18Zm96-1.43a.67.67,0,0,0,.11-.18.36.36,0,0,1,.09-.13.92.92,0,0,0,.18-.53c-.05-.15-.4,0-.57.27a1.12,1.12,0,0,0-.15.64C100.64,47.94,100.82,47.91,100.94,47.74ZM5,47.58a.89.89,0,0,0,.41-.5c.09-.32,0-.49-.24-.29L4.92,47c-.17.17-.37.54-.34.63S4.78,47.7,5,47.58ZM100.92,46a1.3,1.3,0,0,0,.31-.74c0-.17-.07-.17-.3,0a.87.87,0,0,0-.38.57c-.06.37.11.45.37.17ZM5,45.85a.73.73,0,0,0,.39-.61c0-.31,0-.31-.37,0a1.44,1.44,0,0,0-.43.63c0,.09,0,.1.1.1A.7.7,0,0,0,5,45.85Zm95.64-1.47a1.4,1.4,0,0,0,.31-.72c0-.19,0-.2-.1-.19s-.46.35-.52.63c-.1.44.08.6.32.29Zm-95.5-.18c.26-.13.32-.18.39-.34s.11-.43.06-.48-.36.14-.51.32-.39.65-.26.65l.33-.16Zm95.32-1.5c.26-.34.38-.86.22-.91s-.36.26-.49.47-.11.66.05.66.13-.1.22-.21Zm-95-.16A.77.77,0,0,0,5.91,42c0-.18,0-.25-.08-.25a1.48,1.48,0,0,0-.7.6.18.18,0,0,1-.07.12.11.11,0,0,0,.07.2,1.17,1.17,0,0,0,.33-.11Zm94.67-1.34c.23-.25.45-.94.34-1.05s-.24.08-.42.26a.7.7,0,0,0-.19.69Q99.9,41.43,100.12,41.19ZM5.73,40.9a1,1,0,0,0,.53-.72c0-.16-.07-.18-.28-.05s-.64.64-.58.79.13.09.33,0Zm94.09-1.38a1.31,1.31,0,0,0,.27-.88c-.07-.15-.12-.13-.33.08a.74.74,0,0,0-.22.85c.09.13.12.12.28-.06Zm-93.76-.3a.77.77,0,0,0,.42-.41c.1-.19.12-.38.06-.42s-.24.07-.33.16l-.24.2a.88.88,0,0,0-.32.48c0,.07.24.06.41,0ZM99.4,38a1.31,1.31,0,0,0,.33-1c0-.14-.12-.11-.33.12a.78.78,0,0,0-.26.58c0,.35.07.43.26.33Zm-92.92-.4Q7,37.33,7,37c0-.21-.09-.21-.43,0s-.49.43-.49.59.09.15.43,0ZM99,36.25a1.19,1.19,0,0,0,.2-1c-.06-.09-.47.36-.5.54s.05.59.15.59S98.91,36.33,99,36.25ZM6.8,35.95a.84.84,0,0,0,.58-.39c.08-.15.09-.33,0-.37s-.92.56-.92.74,0,.08.31,0Zm91.63-1.2a1.4,1.4,0,0,0,.26-.82.77.77,0,0,0,0-.23c-.06-.06-.32.15-.42.35a.77.77,0,0,0,0,.73c.1.11.13.1.23,0Zm-91-.35a.68.68,0,0,0,.5-.33c.14-.19.17-.39.07-.39a1.88,1.88,0,0,0-.77.46c-.18.2-.21.35-.06.31ZM98,33.11a1,1,0,0,0,.11-.59c0-.5-.06-.53-.32-.17s-.19.26-.17.49C97.65,33.36,97.8,33.46,98,33.11ZM8.08,32.77a1.4,1.4,0,0,0,.33-.21c.09-.11.15-.43.08-.48s-1,.54-1,.7.27.14.59,0Zm89.31-1.32a1.3,1.3,0,0,0,.09-.51c0-.52-.13-.53-.4,0-.12.23-.13.27-.09.45a1.12,1.12,0,0,0,.11.3c.06.09.08.09.13,0a.92.92,0,0,0,.16-.25ZM8.69,31.29c.24-.08.55-.4.55-.55s0-.08-.18-.06a1.34,1.34,0,0,0-.84.52C8.13,31.38,8.33,31.41,8.69,31.29Zm87.93-1.16a1.19,1.19,0,0,0,.18-.81c-.05-.37-.15-.4-.34-.11a.84.84,0,0,0-.07.92c.06.12.1.12.23,0ZM9.26,29.77c.22,0,.5-.17.5-.25a.31.31,0,0,1,.08-.14c.13-.14.13-.26,0-.28a1.78,1.78,0,0,0-.76.35c-.2.18-.27.44-.1.37l.27-.05ZM96,28.55a1.78,1.78,0,0,0,.08-.89c-.05-.1-.22-.09-.22,0a.1.1,0,0,1-.07.09s-.07,0-.07.07a.24.24,0,0,1-.07.11c-.06.06-.07.13,0,.34,0,.54.24.67.39.27Zm-85.87-.43a.66.66,0,0,0,.46-.47c0-.14,0-.14-.15-.11-.36.07-.85.41-.85.59s0,.1.19.07Zm85.12-1.35a1.11,1.11,0,0,0-.07-.72c-.05-.07-.07-.07-.13,0a.81.81,0,0,0-.23.69,1.07,1.07,0,0,0,.1.39l.08.11.11-.11a.75.75,0,0,0,.16-.34ZM11,26.69c.2-.09.43-.39.39-.5s-.06-.05-.21,0c-.45.1-.93.42-.85.56s.47.05.67,0ZM94.4,25.64a2.53,2.53,0,0,0,0-1c-.08-.2-.21-.14-.35.16s-.15.35-.06.6.29.44.4.21Zm-82.6-.42a.71.71,0,0,0,.42-.36c0-.11,0-.23-.05-.23a3.25,3.25,0,0,0-.85.38C11.07,25.24,11.26,25.32,11.8,25.22Zm81.65-1a1.15,1.15,0,0,0,0-1c-.06-.19-.06-.19-.15-.11a.79.79,0,0,0-.14,1,.82.82,0,0,0,.15.21.33.33,0,0,0,.11-.09ZM12.7,23.75c.3-.1.58-.39.48-.48s-.6.06-.86.24-.31.29,0,.29a1.49,1.49,0,0,0,.38,0Zm79.89-1.13a1.38,1.38,0,0,0,0-.58c-.07-.29-.09-.34-.16-.32s-.11.08-.17.23a.82.82,0,0,0,0,.66c.09.22.15.28.26.27s.1-.06.13-.26Zm-78.88-.35c.3-.11.44-.24.4-.36l0-.1a6,6,0,0,0-.86.21.54.54,0,0,0-.16.16c-.06.1-.06.12,0,.15a1,1,0,0,0,.66,0Zm77.86-.86a1.84,1.84,0,0,0-.06-.94c-.11-.17-.23-.12-.32.13a.84.84,0,0,0,0,.71c.15.25.28.29.35.1ZM14.89,20.8c.18-.12.22-.2.18-.31s-.07-.06-.21,0a2.35,2.35,0,0,0-.86.39c0,.1.07.12.39.09A.88.88,0,0,0,14.89,20.8Zm75.71-1c0-.46-.09-.78-.25-.78s-.12,0-.18.24a.74.74,0,0,0,0,.63c.1.2.19.29.29.28S90.58,20.11,90.6,19.8Zm-74.7-.31a.57.57,0,0,0,.2-.21c0-.07,0-.08-.28-.06-.45,0-.93.3-.7.4a1.36,1.36,0,0,0,.33,0,.7.7,0,0,0,.46-.14Zm73.61-.67a1.19,1.19,0,0,0,0-.72c-.08-.34-.12-.42-.22-.42s-.24.68-.08,1,.25.28.33.15ZM17,18.23c.13-.09.18-.15.18-.23s0-.11-.13-.11c-.32,0-.92.24-.92.37s.11.1.42.09A.74.74,0,0,0,17,18.23Zm71.39-.68c.1-.06.12-.46,0-.73s-.19-.42-.28-.42-.18.25-.18.39a1.24,1.24,0,0,0,.2.69C88.25,17.6,88.28,17.61,88.36,17.56ZM18.08,17c.16-.09.21-.14.21-.22s0-.16-.39-.1a1,1,0,0,0-.51.21l-.2.15.15.06A.94.94,0,0,0,18.08,17Zm69.15-.84a1.49,1.49,0,0,0-.21-.85c-.06-.08-.09-.08-.14,0a.82.82,0,0,0-.1.66c.05.22.3.54.39.51S87.22,16.26,87.23,16.11Zm-68-.39c.24-.14.27-.25.1-.31s-.22,0-.54,0-.5.12-.48.25.58.22.91,0ZM86,15.17a1.54,1.54,0,0,0-.23-1c-.1-.14-.24-.05-.29.19a.73.73,0,0,0,.16.7c.16.19.27.22.36.11Zm-65.47-.66c.13-.07.18-.13.18-.2s-.15-.15-.52-.08c-.53.1-.6.13-.58.23s.06.1.25.15A.81.81,0,0,0,20.54,14.51ZM84.86,14a1.48,1.48,0,0,0-.18-.76c-.1-.19-.18-.27-.29-.27a1.33,1.33,0,0,0-.1.62c.3.48.51.62.56.4Zm-63.13-.53c.29-.15.32-.19.22-.26a.94.94,0,0,0-.75,0c-.23.08-.3.12-.3.18S21.42,13.62,21.73,13.46Zm61.77-.76c0-.31-.28-.83-.44-.83s-.15.81.17,1S83.5,13,83.5,12.69Zm-60.63-.28c.33-.07.37-.09.37-.23s0-.11-.3-.11c-.61,0-.92.14-.69.31S22.5,12.49,22.86,12.42Zm59.32-.75a1.15,1.15,0,0,0-.15-.5c-.12-.23-.13-.3-.09-.38s0-.1-.06-.1-.28.22-.28.47a.88.88,0,0,0,.32.66C82.13,12,82.19,11.93,82.18,11.67Zm-57.93-.24c.24-.06.36-.18.29-.28a1.15,1.15,0,0,0-.72,0l-.26.07c-.28.06,0,.28.36.28A1.59,1.59,0,0,0,24.26,11.42Zm56.63-.54a1.7,1.7,0,0,0-.38-1c-.14-.07-.2,0-.24.2a.72.72,0,0,0,0,.39C80.43,10.81,80.81,11.07,80.88,10.88Zm-55.15-.54c.22-.09.26-.14.21-.22s-.16-.06-.42-.06c-.43,0-.67.06-.67.19S25.42,10.48,25.74,10.34Zm53.81-.39c0-.32-.37-1.07-.51-1S79,9,79,9.29v.37l.2.19c.21.2.37.24.37.1ZM27,9.53c.19-.08.26-.16.21-.24a1.64,1.64,0,0,0-1,0c-.06.06-.07.09,0,.13a.87.87,0,0,0,.8.1Zm51-.49a1.83,1.83,0,0,0-.23-.7c-.11-.18-.28-.3-.37-.27s-.08.39,0,.59.47.49.58.37ZM28.53,8.61c.19-.08.27-.18.2-.24a1.28,1.28,0,0,0-.8-.09c-.33.06-.35.13-.08.29A.83.83,0,0,0,28.53,8.61Zm48.15-.5c-.09-.39-.44-.89-.61-.89s-.07,0-.06.27a.75.75,0,0,0,.1.39,1.05,1.05,0,0,0,.51.34C76.7,8.24,76.71,8.21,76.68,8.12ZM30.06,7.71c.23-.11.13-.19-.35-.29a1.53,1.53,0,0,0-.38,0c-.29,0-.31.11-.06.28a.5.5,0,0,0,.42.08A1.46,1.46,0,0,0,30.06,7.71Zm45.12-.32a1.37,1.37,0,0,0-.29-.74.69.69,0,0,0-.35-.2c-.07,0-.08,0-.05.19.08.48.16.63.44.76s.23.08.26,0ZM31.44,7a.56.56,0,0,0,.23-.11c0-.09-.31-.19-.66-.2s-.38,0-.43.05,0,.17.24.26a.77.77,0,0,0,.62,0ZM73.69,6.6a1.46,1.46,0,0,0-.45-.77c-.17-.13-.29-.16-.29-.09s0,.18.07.35a.71.71,0,0,0,.47.6C73.65,6.74,73.69,6.73,73.69,6.6ZM33.07,6.24c.07,0,.12-.09.12-.12S32.3,5.85,32.13,6s-.08.07,0,.16a1.08,1.08,0,0,0,.2.13,1.3,1.3,0,0,0,.73,0ZM72.2,6a1.77,1.77,0,0,0-.39-.69c-.17-.19-.31-.26-.37-.17a1.7,1.7,0,0,0,.13.58C71.7,5.95,72.2,6.16,72.2,6Zm-37.68-.4c.12,0,.22-.1.22-.13s-.91-.32-1.09-.2,0,.17.2.29A.74.74,0,0,0,34.51,5.59Zm36.11-.31a1.59,1.59,0,0,0-.52-.77c-.13-.08-.15-.08-.21,0s0,.31.09.52a1.43,1.43,0,0,0,.61.39s0-.06,0-.12ZM36.07,5,36.24,5c.08,0,.08,0-.05-.15a1,1,0,0,0-.75-.17c-.28,0-.32.08-.16.23A.89.89,0,0,0,36.07,5Zm33-.32c0-.24-.55-.86-.76-.86h-.11l.06.27a.78.78,0,0,0,.48.6c.24.11.33.11.33,0ZM37.88,4.36c0-.1,0-.13-.25-.23-.42-.18-1-.13-.78.08a1.79,1.79,0,0,0,.83.27C37.87,4.48,37.88,4.47,37.88,4.36Zm29.56-.22A1.2,1.2,0,0,0,67,3.52c-.28-.22-.42-.15-.33.17a.86.86,0,0,0,.55.55C67.4,4.3,67.43,4.29,67.43,4.13Zm-28.1-.25c.19,0,.21-.05.16-.18s-.11-.11-.24-.15-.77-.08-.79,0,.46.43.62.39l.25,0Zm26.5-.21c0-.13-.19-.45-.51-.69s-.42-.12-.27.24S65.76,3.86,65.83,3.67ZM41,3.44c.11,0,.08-.17-.06-.25A2.35,2.35,0,0,0,40.16,3c-.08,0-.1,0-.1.13a.26.26,0,0,0,.06.18A1.36,1.36,0,0,0,41,3.44Zm23.27-.12c0-.09-.05-.23-.26-.46a.8.8,0,0,0-.51-.31c-.08,0-.09,0-.07.12a2.07,2.07,0,0,0,.08.24,1.22,1.22,0,0,0,.71.47S64.21,3.35,64.22,3.32ZM42.63,3c.05-.05-.07-.18-.28-.28s-.72-.18-.72-.1.22.34.5.41a1,1,0,0,0,.5,0ZM62.57,2.8c0-.15-.58-.68-.78-.68s-.05.36.22.58.28.21.43.2a.12.12,0,0,0,.12-.09ZM44.28,2.6c0-.09,0-.12-.25-.21s-.69-.15-.72-.07.08.13.21.23a.52.52,0,0,0,.49.17c.25,0,.27,0,.27-.12Zm16.64-.09c0-.23-.66-.73-.82-.63s-.11.19,0,.35S60.92,2.71,60.92,2.51ZM46,2.44s0-.07,0-.13A1.23,1.23,0,0,0,45.18,2C45,2,45,2,45,2.05s.18.28.44.39a.87.87,0,0,0,.55,0Zm13.28-.24c0-.08-.07-.15-.31-.32s-.56-.29-.58-.14.24.42.44.52a.68.68,0,0,0,.3.06C59.21,2.31,59.24,2.3,59.24,2.21Zm-11.66,0c0-.15-.08-.23-.44-.37s-.51-.11-.55,0,.31.37.5.43a1.25,1.25,0,0,0,.33,0C47.54,2.27,47.56,2.25,47.57,2.16Zm10.06.05c.11-.07-.23-.42-.59-.6s-.46-.08-.28.22.67.51.87.38Zm-8.39-.16c.09-.11,0-.23-.33-.38s-.58-.21-.62-.11,0,.12.16.25S49.13,2.18,49.24,2.05Zm1.64-.11c.06,0,.11-.07.11-.11s-.5-.43-.82-.48-.3.06,0,.33S50.66,2,50.88,1.94Zm3.28,0c.08-.06.08-.07-.07-.22a1.37,1.37,0,0,0-.74-.38c-.3.08.27.66.66.67a.31.31,0,0,0,.15-.06Zm1.77,0c0-.18-.6-.59-.82-.56s-.16.09.06.33a.76.76,0,0,0,.62.31c.11,0,.14,0,.14-.08Zm-3.3,0c.05-.08-.07-.23-.34-.4a.77.77,0,0,0-.46-.17c-.16,0-.19,0-.19.08s.19.33.4.43S52.59,2,52.63,1.9Z"/></g></svg>