<?xml version="1.0" encoding="utf-8"?>
<!-- Generator: Adobe Illustrator 19.2.0, SVG Export Plug-In . SVG Version: 6.00 Build 0)  -->
<svg version="1.1" id="Layer_1" xmlns="http://www.w3.org/2000/svg" xmlns:xlink="http://www.w3.org/1999/xlink" x="0px" y="0px"
	 viewBox="0 0 760 126" style="enable-background:new 0 0 760 126;" xml:space="preserve">
<style type="text/css">
	.st0{clip-path:url(#SVGID_2_);fill:#005373;}
	.st1{clip-path:url(#SVGID_2_);fill:#6A6C74;}
	.st2{clip-path:url(#SVGID_2_);}
	.st3{fill:#F5A01D;}
	.st4{font-family:'STIXGeneral-Regular';}
	.st5{font-size:138px;}
	.st6{fill:#005373;}
	.st7{letter-spacing:1;}
</style>
<g>
	<defs>
		<rect id="SVGID_1_" width="760" height="126"/>
	</defs>
	<clipPath id="SVGID_2_">
		<use xlink:href="#SVGID_1_"  style="overflow:visible;"/>
	</clipPath>
	<path class="st0" d="M21.1,50.3c0-17.7,0-21-0.2-24.7c-0.2-4-1.2-5.8-5-6.6c-0.9-0.2-2.9-0.3-4.5-0.3c-1.3,0-2-0.2-2-1
		c0-0.8,0.8-1,2.6-1c6.2,0,13.5,0.3,17,0.3c2.8,0,10.1-0.3,14.3-0.3c1.7,0,2.6,0.2,2.6,1c0,0.8-0.7,1-1.9,1c-1.3,0-2,0.1-3.4,0.3
		c-3.1,0.6-4.1,2.6-4.3,6.6c-0.2,3.7-0.2,7-0.2,24.7v16.3c0,16.9,3.4,24,9.1,28.6c5.2,4.3,10.6,4.8,14.6,4.8
		c5.1,0,11.4-1.6,16.1-6.3c6.4-6.4,6.8-16.9,6.8-28.9V50.3c0-17.7,0-21-0.2-24.7c-0.2-4-1.2-5.8-5-6.6c-0.9-0.2-2.9-0.3-4.2-0.3
		c-1.3,0-2-0.2-2-1c0-0.8,0.8-1,2.4-1c5.9,0,13.3,0.3,13.4,0.3c1.4,0,8.7-0.3,13.3-0.3c1.6,0,2.4,0.2,2.4,1c0,0.8-0.7,1-2.1,1
		c-1.3,0-2,0.1-3.4,0.3c-3.1,0.6-4.1,2.6-4.3,6.6c-0.2,3.7-0.2,7-0.2,24.7v12.5c0,12.9-1.3,26.7-11.1,35c-8.3,7.1-16.6,8.4-24.2,8.4
		c-6.2,0-17.3-0.4-25.8-8c-5.9-5.4-10.4-14-10.4-30.9V50.3"/>
	<path class="st0" d="M186.2,53.6c0.3,0,0.7-0.2,0.7-0.8v-2.4c0-17.7,0-21-0.2-24.7c-0.2-4-1.2-5.8-5-6.6c-0.9-0.2-2.9-0.3-4.5-0.3
		c-1.3,0-2-0.2-2-1c0-0.8,0.8-1,2.4-1c6.3,0,13.6,0.3,16.8,0.3c2.8,0,10.1-0.3,14.7-0.3c1.6,0,2.4,0.2,2.4,1c0,0.8-0.7,1-2.1,1
		c-0.9,0-2,0.1-3.4,0.3c-3.1,0.6-4.1,2.6-4.3,6.6c-0.2,3.7-0.2,7-0.2,24.7v20.5c0,10.7,0,19.9,0.6,24.9c0.3,3.3,1,5.8,4.5,6.3
		c1.6,0.2,4.2,0.5,5.9,0.5c1.3,0,1.9,0.4,1.9,0.9c0,0.8-0.9,1.2-2.3,1.2c-7.6,0-14.9-0.3-18.2-0.3c-2.7,0-10,0.3-14.6,0.3
		c-1.6,0-2.4-0.3-2.4-1.2c0-0.6,0.5-0.9,1.9-0.9c1.7,0,3.1-0.2,4.2-0.5c2.3-0.5,2.9-3,3.4-6.4c0.6-4.9,0.6-14.1,0.6-24.8V60.6
		c0-0.5-0.3-0.7-0.7-0.7h-44.5c-0.3,0-0.7,0.1-0.7,0.7v10.2c0,10.7,0,19.9,0.6,24.9c0.3,3.3,1,5.8,4.5,6.3c1.6,0.2,4.2,0.5,5.9,0.5
		c1.3,0,1.9,0.4,1.9,0.9c0,0.8-0.9,1.2-2.3,1.2c-7.6,0-14.9-0.3-18.2-0.3c-2.7,0-10,0.3-14.7,0.3c-1.5,0-2.3-0.3-2.3-1.2
		c0-0.6,0.5-0.9,1.9-0.9c1.7,0,3.1-0.2,4.2-0.5c2.3-0.5,2.9-3,3.4-6.4c0.6-4.9,0.6-14.1,0.6-24.8V50.3c0-17.7,0-21-0.2-24.7
		c-0.2-4-1.2-5.8-5-6.6c-0.9-0.2-2.9-0.3-4.5-0.3c-1.3,0-2-0.2-2-1c0-0.8,0.8-1,2.4-1c6.3,0,13.6,0.3,16.8,0.3
		c2.8,0,10.1-0.3,14.7-0.3c1.6,0,2.4,0.2,2.4,1c0,0.8-0.7,1-2.1,1c-0.9,0-2,0.1-3.4,0.3c-3.1,0.6-4.1,2.6-4.3,6.6
		c-0.2,3.7-0.2,7-0.2,24.7v2.4c0,0.6,0.4,0.8,0.7,0.8H186.2"/>
	<path class="st1" d="M237.2,50.3c0-18.2,0-21.4-0.2-25.1c-0.2-4-1.2-5.8-5-6.6c-0.9-0.2-2.9-0.3-4-0.3c-0.5,0-0.9-0.2-0.9-0.7
		c0-0.7,0.6-0.9,1.9-0.9c2.7,0,5.8,0,8.4,0.1l4.8,0.2c0.8,0,24,0,26.7-0.1c2.2-0.1,4.1-0.3,5-0.6c0.6-0.1,1-0.6,1.6-0.6
		c0.4,0,0.5,0.5,0.5,1c0,0.8-0.6,2.2-0.9,5.5c-0.1,1.2-0.3,6.3-0.6,7.7c-0.1,0.6-0.3,1.3-0.8,1.3c-0.7,0-0.9-0.6-0.9-1.5
		c0-0.8-0.1-2.8-0.7-4.2c-0.8-1.9-2-3.3-8.3-4c-2-0.2-14.7-0.3-16-0.3c-0.5,0-0.7,0.3-0.7,1.2v32.1c0,0.8,0.1,1.2,0.7,1.2
		c1.5,0,15.8,0,18.5-0.2c2.8-0.2,4.4-0.5,5.5-1.6c0.8-0.9,1.3-1.5,1.7-1.5c0.3,0,0.6,0.2,0.6,0.9c0,0.7-0.6,2.7-0.9,6.5
		c-0.2,2.3-0.5,6.6-0.5,7.5c0,0.9,0,2.2-0.8,2.2c-0.6,0-0.8-0.5-0.8-1c0-1.2,0-2.3-0.5-3.8c-0.5-1.6-1.5-3.6-6.1-4.1
		c-3.1-0.3-14.7-0.6-16.6-0.6c-0.6,0-0.8,0.3-0.8,0.8v10.2c0,4-0.1,17.5,0,19.9c0.4,8,2.1,9.5,13.5,9.5c3,0,8.1,0,11.2-1.3
		c3-1.3,4.4-3.6,5.2-8.4c0.2-1.3,0.5-1.7,1-1.7c0.7,0,0.7,0.9,0.7,1.7c0,0.9-0.9,8.9-1.5,11.3c-0.8,3-1.7,3-6.3,3
		c-8.7,0-15.1-0.2-19.7-0.3c-4.5-0.2-7.3-0.3-9.1-0.3c-0.2,0-2.2,0-4.7,0.1c-2.3,0-5,0.2-6.8,0.2c-1.3,0-1.9-0.2-1.9-0.9
		c0-0.3,0.2-0.7,0.9-0.7c1,0,2.4-0.2,3.5-0.5c2.3-0.5,2.9-3,3.4-6.4c0.6-4.9,0.6-14.1,0.6-25.3V50.3"/>
	<path class="st1" d="M316.3,60.5c0,0.6,0.2,1,0.8,1.4c1.7,1,7.1,1.9,12.2,1.9c2.8,0,6.1-0.3,8.7-2.2c4.1-2.8,7.1-9.1,7.1-17.9
		c0-14.6-7.7-23.3-20.1-23.3c-3.5,0-6.6,0.3-7.8,0.7c-0.6,0.2-0.9,0.7-0.9,1.4V60.5 M307,50.3c0-18.2,0-21.4-0.2-25.1
		c-0.2-4-1.2-5.8-5-6.6c-0.9-0.2-2.9-0.3-4-0.3c-0.5,0-0.9-0.2-0.9-0.7c0-0.7,0.6-0.9,1.9-0.9c5.2,0,12.6,0.3,13.2,0.3
		c1.3,0,10.1-0.3,13.7-0.3c7.3,0,15.1,0.7,21.3,5.1c2.9,2.1,8,7.8,8,15.8c0,8.6-3.6,17.2-14.1,26.9c9.5,12.2,17.5,22.6,24.2,29.8
		c6.3,6.6,11.3,7.9,14.2,8.4c2.2,0.3,3.8,0.3,4.5,0.3c0.6,0,1,0.3,1,0.7c0,0.7-0.7,0.9-2.8,0.9h-8.3c-6.5,0-9.4-0.6-12.5-2.2
		c-5-2.7-9.1-8.4-15.7-17.1c-4.9-6.4-10.4-14.2-12.7-17.2c-0.5-0.5-0.8-0.7-1.5-0.7l-14.3-0.2c-0.6,0-0.8,0.4-0.8,0.9v2.8
		c0,11.2,0,20.4,0.6,25.3c0.3,3.4,1,5.9,4.5,6.4c1.6,0.2,4.2,0.5,5.2,0.5c0.7,0,0.9,0.3,0.9,0.7c0,0.6-0.6,0.9-1.9,0.9
		c-6.4,0-13.7-0.3-14.3-0.3c-0.1,0-7.5,0.3-10.9,0.3c-1.3,0-1.9-0.2-1.9-0.9c0-0.3,0.2-0.7,0.9-0.7c1,0,2.4-0.2,3.5-0.5
		c2.3-0.5,2.9-3,3.4-6.4C307,91.2,307,82,307,70.8V50.3z"/>
	<path class="st1" d="M425.8,101.8c10.5,0,32.1-6.1,32.1-39.9c0-27.9-17-43-35.4-43c-19.4,0-34,12.8-34,38.3
		C388.5,84.3,404.8,101.8,425.8,101.8 M423.3,15c26.2,0,45.8,16.5,45.8,43.7c0,26.1-18.4,47.6-46.5,47.6
		c-31.9,0-45.2-24.8-45.2-45.8C377.4,41.6,391.2,15,423.3,15"/>
	<g class="st2">
		<text transform="matrix(1 0 0 1 472 104.5986)" class="st3 st4 st5">.</text>
	</g>
	<g class="st2">
		<text transform="matrix(1 0 0 1 506.5 104.5986)"><tspan x="0" y="0" class="st6 st4 st5">da</tspan><tspan x="130.3" y="0" class="st6 st4 st5 st7">t</tspan><tspan x="169.9" y="0" class="st6 st4 st5">a</tspan></text>
	</g>
</g>
</svg>
