<?xml version="1.0" encoding="utf-8"?>
<!-- Generator: Adobe Illustrator 21.1.0, SVG Export Plug-In . SVG Version: 6.00 Build 0)  -->
<svg version="1.1" id="Layer_1" xmlns="http://www.w3.org/2000/svg" xmlns:xlink="http://www.w3.org/1999/xlink" x="0px" y="0px"
	 viewBox="0 0 760 126" style="enable-background:new 0 0 760 126;" xml:space="preserve">
<style type="text/css">
	.st0{fill:#005373;}
	.st1{fill:#6A6C74;}
	.st2{enable-background:new    ;}
	.st3{fill:#F5A01D;}
</style>
<g>
	<g>
		<path class="st0" d="M21.1,50.3c0-17.7,0-21-0.2-24.7c-0.2-4-1.2-5.8-5-6.6c-0.9-0.2-2.9-0.3-4.5-0.3c-1.3,0-2-0.2-2-1
			s0.8-1,2.6-1c6.2,0,13.5,0.3,17,0.3c2.8,0,10.1-0.3,14.3-0.3c1.7,0,2.6,0.2,2.6,1s-0.7,1-1.9,1c-1.3,0-2,0.1-3.4,0.3
			c-3.1,0.6-4.1,2.6-4.3,6.6c-0.2,3.7-0.2,7-0.2,24.7v16.3c0,16.9,3.4,24,9.1,28.6c5.2,4.3,10.6,4.8,14.6,4.8
			c5.1,0,11.4-1.6,16.1-6.3c6.4-6.4,6.8-16.9,6.8-28.9V50.3c0-17.7,0-21-0.2-24.7c-0.2-4-1.2-5.8-5-6.6c-0.9-0.2-2.9-0.3-4.2-0.3
			s-2-0.2-2-1s0.8-1,2.4-1c5.9,0,13.3,0.3,13.4,0.3c1.4,0,8.7-0.3,13.3-0.3c1.6,0,2.4,0.2,2.4,1s-0.7,1-2.1,1c-1.3,0-2,0.1-3.4,0.3
			c-3.1,0.6-4.1,2.6-4.3,6.6c-0.2,3.7-0.2,7-0.2,24.7v12.5c0,12.9-1.3,26.7-11.1,35c-8.3,7.1-16.6,8.4-24.2,8.4
			c-6.2,0-17.3-0.4-25.8-8c-5.9-5.4-10.4-14-10.4-30.9v-17"/>
	</g>
	<g>
		<path class="st0" d="M186.2,53.6c0.3,0,0.7-0.2,0.7-0.8v-2.4c0-17.7,0-21-0.2-24.7c-0.2-4-1.2-5.8-5-6.6c-0.9-0.2-2.9-0.3-4.5-0.3
			c-1.3,0-2-0.2-2-1s0.8-1,2.4-1c6.3,0,13.6,0.3,16.8,0.3c2.8,0,10.1-0.3,14.7-0.3c1.6,0,2.4,0.2,2.4,1s-0.7,1-2.1,1
			c-0.9,0-2,0.1-3.4,0.3c-3.1,0.6-4.1,2.6-4.3,6.6c-0.2,3.7-0.2,7-0.2,24.7v20.5c0,10.7,0,19.9,0.6,24.9c0.3,3.3,1,5.8,4.5,6.3
			c1.6,0.2,4.2,0.5,5.9,0.5c1.3,0,1.9,0.4,1.9,0.9c0,0.8-0.9,1.2-2.3,1.2c-7.6,0-14.9-0.3-18.2-0.3c-2.7,0-10,0.3-14.6,0.3
			c-1.6,0-2.4-0.3-2.4-1.2c0-0.6,0.5-0.9,1.9-0.9c1.7,0,3.1-0.2,4.2-0.5c2.3-0.5,2.9-3,3.4-6.4c0.6-4.9,0.6-14.1,0.6-24.8V60.6
			c0-0.5-0.3-0.7-0.7-0.7h-44.5c-0.3,0-0.7,0.1-0.7,0.7v10.2c0,10.7,0,19.9,0.6,24.9c0.3,3.3,1,5.8,4.5,6.3c1.6,0.2,4.2,0.5,5.9,0.5
			c1.3,0,1.9,0.4,1.9,0.9c0,0.8-0.9,1.2-2.3,1.2c-7.6,0-14.9-0.3-18.2-0.3c-2.7,0-10,0.3-14.7,0.3c-1.5,0-2.3-0.3-2.3-1.2
			c0-0.6,0.5-0.9,1.9-0.9c1.7,0,3.1-0.2,4.2-0.5c2.3-0.5,2.9-3,3.4-6.4c0.6-4.9,0.6-14.1,0.6-24.8V50.3c0-17.7,0-21-0.2-24.7
			c-0.2-4-1.2-5.8-5-6.6c-0.9-0.2-2.9-0.3-4.5-0.3c-1.3,0-2-0.2-2-1s0.8-1,2.4-1c6.3,0,13.6,0.3,16.8,0.3c2.8,0,10.1-0.3,14.7-0.3
			c1.6,0,2.4,0.2,2.4,1s-0.7,1-2.1,1c-0.9,0-2,0.1-3.4,0.3c-3.1,0.6-4.1,2.6-4.3,6.6c-0.2,3.7-0.2,7-0.2,24.7v2.4
			c0,0.6,0.4,0.8,0.7,0.8L186.2,53.6"/>
	</g>
	<g>
		<path class="st1" d="M237.2,50.3c0-18.2,0-21.4-0.2-25.1c-0.2-4-1.2-5.8-5-6.6c-0.9-0.2-2.9-0.3-4-0.3c-0.5,0-0.9-0.2-0.9-0.7
			c0-0.7,0.6-0.9,1.9-0.9c2.7,0,5.8,0,8.4,0.1l4.8,0.2c0.8,0,24,0,26.7-0.1c2.2-0.1,4.1-0.3,5-0.6c0.6-0.1,1-0.6,1.6-0.6
			c0.4,0,0.5,0.5,0.5,1c0,0.8-0.6,2.2-0.9,5.5c-0.1,1.2-0.3,6.3-0.6,7.7c-0.1,0.6-0.3,1.3-0.8,1.3c-0.7,0-0.9-0.6-0.9-1.5
			c0-0.8-0.1-2.8-0.7-4.2c-0.8-1.9-2-3.3-8.3-4c-2-0.2-14.7-0.3-16-0.3c-0.5,0-0.7,0.3-0.7,1.2v32.1c0,0.8,0.1,1.2,0.7,1.2
			c1.5,0,15.8,0,18.5-0.2c2.8-0.2,4.4-0.5,5.5-1.6c0.8-0.9,1.3-1.5,1.7-1.5c0.3,0,0.6,0.2,0.6,0.9c0,0.7-0.6,2.7-0.9,6.5
			c-0.2,2.3-0.5,6.6-0.5,7.5s0,2.2-0.8,2.2c-0.6,0-0.8-0.5-0.8-1c0-1.2,0-2.3-0.5-3.8c-0.5-1.6-1.5-3.6-6.1-4.1
			c-3.1-0.3-14.7-0.6-16.6-0.6c-0.6,0-0.8,0.3-0.8,0.8V71c0,4-0.1,17.5,0,19.9c0.4,8,2.1,9.5,13.5,9.5c3,0,8.1,0,11.2-1.3
			c3-1.3,4.4-3.6,5.2-8.4c0.2-1.3,0.5-1.7,1-1.7c0.7,0,0.7,0.9,0.7,1.7c0,0.9-0.9,8.9-1.5,11.3c-0.8,3-1.7,3-6.3,3
			c-8.7,0-15.1-0.2-19.7-0.3c-4.5-0.2-7.3-0.3-9.1-0.3c-0.2,0-2.2,0-4.7,0.1c-2.3,0-5,0.2-6.8,0.2c-1.3,0-1.9-0.2-1.9-0.9
			c0-0.3,0.2-0.7,0.9-0.7c1,0,2.4-0.2,3.5-0.5c2.3-0.5,2.9-3,3.4-6.4c0.6-4.9,0.6-14.1,0.6-25.3L237.2,50.3"/>
	</g>
	<g>
		<path class="st1" d="M316.3,60.5c0,0.6,0.2,1,0.8,1.4c1.7,1,7.1,1.9,12.2,1.9c2.8,0,6.1-0.3,8.7-2.2c4.1-2.8,7.1-9.1,7.1-17.9
			c0-14.6-7.7-23.3-20.1-23.3c-3.5,0-6.6,0.3-7.8,0.7c-0.6,0.2-0.9,0.7-0.9,1.4L316.3,60.5 M307,50.3c0-18.2,0-21.4-0.2-25.1
			c-0.2-4-1.2-5.8-5-6.6c-0.9-0.2-2.9-0.3-4-0.3c-0.5,0-0.9-0.2-0.9-0.7c0-0.7,0.6-0.9,1.9-0.9c5.2,0,12.6,0.3,13.2,0.3
			c1.3,0,10.1-0.3,13.7-0.3c7.3,0,15.1,0.7,21.3,5.1c2.9,2.1,8,7.8,8,15.8c0,8.6-3.6,17.2-14.1,26.9c9.5,12.2,17.5,22.6,24.2,29.8
			c6.3,6.6,11.3,7.9,14.2,8.4c2.2,0.3,3.8,0.3,4.5,0.3c0.6,0,1,0.3,1,0.7c0,0.7-0.7,0.9-2.8,0.9h-8.3c-6.5,0-9.4-0.6-12.5-2.2
			c-5-2.7-9.1-8.4-15.7-17.1c-4.9-6.4-10.4-14.2-12.7-17.2c-0.5-0.5-0.8-0.7-1.5-0.7L317,67.2c-0.6,0-0.8,0.4-0.8,0.9v2.8
			c0,11.2,0,20.4,0.6,25.3c0.3,3.4,1,5.9,4.5,6.4c1.6,0.2,4.2,0.5,5.2,0.5c0.7,0,0.9,0.3,0.9,0.7c0,0.6-0.6,0.9-1.9,0.9
			c-6.4,0-13.7-0.3-14.3-0.3c-0.1,0-7.5,0.3-10.9,0.3c-1.3,0-1.9-0.2-1.9-0.9c0-0.3,0.2-0.7,0.9-0.7c1,0,2.4-0.2,3.5-0.5
			c2.3-0.5,2.9-3,3.4-6.4c0.8-5,0.8-14.2,0.8-25.4L307,50.3L307,50.3z"/>
	</g>
	<g>
		<path class="st1" d="M425.8,101.8c10.5,0,32.1-6.1,32.1-39.9c0-27.9-17-43-35.4-43c-19.4,0-34,12.8-34,38.3
			C388.5,84.3,404.8,101.8,425.8,101.8 M423.3,15c26.2,0,45.8,16.5,45.8,43.7c0,26.1-18.4,47.6-46.5,47.6
			c-31.9,0-45.2-24.8-45.2-45.8C377.4,41.6,391.2,15,423.3,15"/>
	</g>
	<g>
		<g>
			<g class="st2">
				<path class="st3" d="M497,98.7c0,2-0.8,3.8-2.3,5.2c-1.5,1.5-3.3,2.2-5.5,2.2c-2.1,0-3.9-0.7-5.4-2.2s-2.2-3.3-2.2-5.4
					c0-2.1,0.8-3.9,2.3-5.5c1.5-1.5,3.3-2.3,5.5-2.3c2,0,3.8,0.8,5.3,2.3C496.2,94.7,497,96.5,497,98.7z"/>
			</g>
		</g>
	</g>
	<g>
		<g>
			<g class="st2">
				<path class="st0" d="M574.3,98.8L554,106l-0.6-0.4v-8.8c-4.4,6.2-10.3,9.2-17.7,9.2c-7.6,0-13.8-2.7-18.5-8.2s-7-12.6-7-21.5
					c0-9.8,2.8-18.1,8.4-24.9c5.6-6.9,12.4-10.3,20.3-10.3c5,0,9.8,2,14.5,5.9V25.5c0-2.9-0.4-4.7-1.2-5.7c-0.8-0.9-2.5-1.4-5.1-1.4
					c-1.3,0-2.3,0-3,0.1v-2.2c8.4-2.2,15.1-4.2,20.3-6.1l0.7,0.3v78.2c0,3.2,0.4,5.3,1.2,6.3s2.4,1.5,4.9,1.5c0.6,0,1.6,0,3.2-0.1
					v2.4H574.3z M553.4,90.5V58.8c0-3.7-1.4-6.9-4.2-9.7c-2.8-2.8-6.1-4.1-9.9-4.1c-5.2,0-9.4,2.3-12.6,7
					c-3.1,4.7-4.7,10.9-4.7,18.8c0,8.5,1.7,15.2,5.2,20.4c3.4,5.1,8.1,7.7,13.9,7.7c4.3,0,7.7-1.5,10.2-4.4
					C552.7,92.8,553.4,91.5,553.4,90.5z"/>
				<path class="st0" d="M636.5,95.5v3.9c-3.5,4.4-7.6,6.6-12.4,6.6c-5.2,0-8.2-3.4-8.8-10.1h-0.1c-5.9,6.7-12.6,10.1-20,10.1
					c-4.3,0-7.8-1.3-10.5-3.8s-4-6-4-10.6c0-6.4,3.2-11.8,9.7-16.1c4.4-2.9,12.7-6.7,24.8-11.2v-7.5c0-4.1-1-7.2-3-9.3
					c-2-2.1-4.6-3.1-7.8-3.1c-2.8,0-5.1,0.7-6.9,2c-1.8,1.3-2.8,2.9-2.8,4.8c0,0.8,0.1,1.7,0.4,2.8c0.3,1,0.4,2,0.4,3
					c0,1.4-0.6,2.7-1.9,3.9c-1.2,1.2-2.7,1.8-4.5,1.8c-1.6,0-2.9-0.6-4.1-1.8c-1.2-1.2-1.8-2.7-1.8-4.6c0-4.4,2.3-8.1,7-11
					c4.3-2.8,9.6-4.1,15.9-4.1c7.5,0,12.9,2.1,16.3,6.2c1.7,1.9,2.7,3.9,3.2,5.9s0.7,5.1,0.7,9.5V89c0,6.1,1.4,9.1,4.3,9.1
					C632.4,98.1,634.4,97.2,636.5,95.5z M615.1,87.1V67.6c-8.5,2.9-14.4,6-17.7,9.1c-3.1,2.9-4.7,6.4-4.7,10.6
					c0,3.5,0.9,6.1,2.6,7.9c1.7,1.8,4,2.7,6.9,2.7c3,0,5.7-0.7,8-2.2c1.9-1.4,3.2-2.7,3.9-3.9C614.8,90.7,615.1,89.1,615.1,87.1z"/>
			</g>
			<g class="st2">
				<path class="st0" d="M673.5,94l1.8,1.5c-4.4,7-10,10.5-16.7,10.5c-8.1,0-12.1-5.8-12.1-17.5V47h-7.3c-0.4-0.3-0.6-0.6-0.6-1
					c0-0.7,0.8-1.6,2.3-2.6c3.5-2,8-6.9,13.4-14.8c0.2-0.3,0.6-0.8,1.3-1.7c0.7-0.9,1.2-1.6,1.4-2.1c0.6,0,1,0.6,1,1.8v16h14V47
					h-13.9v39.5c0,4.4,0.6,7.6,1.7,9.5c1.1,1.9,2.9,2.9,5.5,2.9C668,98.8,670.7,97.2,673.5,94z"/>
			</g>
			<g class="st2">
				<path class="st0" d="M737.4,95.5v3.9c-3.5,4.4-7.6,6.6-12.4,6.6c-5.2,0-8.2-3.4-8.8-10.1H716c-5.9,6.7-12.6,10.1-20,10.1
					c-4.3,0-7.8-1.3-10.5-3.8s-4-6-4-10.6c0-6.4,3.2-11.8,9.7-16.1c4.4-2.9,12.7-6.7,24.8-11.2v-7.5c0-4.1-1-7.2-3-9.3
					c-2-2.1-4.6-3.1-7.8-3.1c-2.8,0-5.1,0.7-6.9,2c-1.8,1.3-2.8,2.9-2.8,4.8c0,0.8,0.1,1.7,0.4,2.8c0.3,1,0.4,2,0.4,3
					c0,1.4-0.6,2.7-1.9,3.9c-1.2,1.2-2.7,1.8-4.5,1.8c-1.6,0-2.9-0.6-4.1-1.8c-1.2-1.2-1.8-2.7-1.8-4.6c0-4.4,2.3-8.1,7-11
					c4.3-2.8,9.6-4.1,15.9-4.1c7.5,0,12.9,2.1,16.3,6.2c1.7,1.9,2.7,3.9,3.2,5.9s0.7,5.1,0.7,9.5V89c0,6.1,1.4,9.1,4.3,9.1
					C733.3,98.1,735.3,97.2,737.4,95.5z M716,87.1V67.6c-8.5,2.9-14.4,6-17.7,9.1c-3.1,2.9-4.7,6.4-4.7,10.6c0,3.5,0.9,6.1,2.6,7.9
					c1.7,1.8,4,2.7,6.9,2.7c3,0,5.7-0.7,8-2.2c1.9-1.4,3.2-2.7,3.9-3.9C715.7,90.7,716,89.1,716,87.1z"/>
			</g>
		</g>
	</g>
</g>
</svg>
